<svg width="1250" height="514" viewBox="0 0 1250 514" fill="none" xmlns="http://www.w3.org/2000/svg">
<rect width="1250" height="514" rx="40" fill="url(#paint0_linear_4_110)"/>
<path d="M118.102 192H102.284L126.386 122.182H145.409L169.477 192H153.659L136.17 138.136H135.625L118.102 192ZM117.114 164.557H154.477V176.08H117.114V164.557ZM175.961 192V122.182H190.722V179.83H220.654V192H175.961ZM228.509 192V122.182H275.555V134.352H243.271V150.989H273.134V163.159H243.271V179.83H275.691V192H228.509ZM313.325 122.182H327.916V170.864C327.916 175.364 326.905 179.273 324.882 182.591C322.882 185.909 320.098 188.466 316.53 190.261C312.962 192.057 308.814 192.955 304.087 192.955C299.882 192.955 296.064 192.216 292.632 190.739C289.223 189.239 286.518 186.966 284.518 183.92C282.518 180.852 281.53 177 281.553 172.364H296.246C296.291 174.205 296.666 175.784 297.371 177.102C298.098 178.398 299.087 179.398 300.337 180.102C301.609 180.784 303.109 181.125 304.837 181.125C306.655 181.125 308.189 180.739 309.439 179.966C310.712 179.17 311.678 178.011 312.337 176.489C312.996 174.966 313.325 173.091 313.325 170.864V122.182ZM350.235 192H334.417L358.519 122.182H377.542L401.61 192H385.792L368.303 138.136H367.758L350.235 192ZM349.246 164.557H386.61V176.08H349.246V164.557ZM466.491 122.182V192H453.741L423.366 148.057H422.855V192H408.093V122.182H421.048L451.184 166.091H451.798V122.182H466.491ZM501.517 192H476.767V122.182H501.721C508.744 122.182 514.79 123.58 519.858 126.375C524.926 129.148 528.824 133.136 531.551 138.341C534.301 143.545 535.676 149.773 535.676 157.023C535.676 164.295 534.301 170.545 531.551 175.773C528.824 181 524.903 185.011 519.79 187.807C514.699 190.602 508.608 192 501.517 192ZM491.528 179.352H500.903C505.267 179.352 508.937 178.58 511.915 177.034C514.915 175.466 517.165 173.045 518.665 169.773C520.187 166.477 520.949 162.227 520.949 157.023C520.949 151.864 520.187 147.648 518.665 144.375C517.165 141.102 514.926 138.693 511.949 137.148C508.971 135.602 505.301 134.83 500.937 134.83H491.528V179.352ZM544.691 192V122.182H572.236C577.509 122.182 582.009 123.125 585.736 125.011C589.486 126.875 592.338 129.523 594.293 132.955C596.27 136.364 597.259 140.375 597.259 144.989C597.259 149.625 596.259 153.614 594.259 156.955C592.259 160.273 589.361 162.818 585.566 164.591C581.793 166.364 577.225 167.25 571.861 167.25H553.418V155.386H569.475C572.293 155.386 574.634 155 576.497 154.227C578.361 153.455 579.747 152.295 580.657 150.75C581.588 149.205 582.054 147.284 582.054 144.989C582.054 142.67 581.588 140.716 580.657 139.125C579.747 137.534 578.35 136.33 576.463 135.511C574.6 134.67 572.247 134.25 569.407 134.25H559.452V192H544.691ZM582.395 160.227L599.747 192H583.452L566.475 160.227H582.395ZM669.93 157.091C669.93 164.705 668.487 171.182 665.6 176.523C662.737 181.864 658.828 185.943 653.873 188.761C648.941 191.557 643.396 192.955 637.237 192.955C631.032 192.955 625.464 191.545 620.532 188.727C615.6 185.909 611.703 181.83 608.839 176.489C605.975 171.148 604.543 164.682 604.543 157.091C604.543 149.477 605.975 143 608.839 137.659C611.703 132.318 615.6 128.25 620.532 125.455C625.464 122.636 631.032 121.227 637.237 121.227C643.396 121.227 648.941 122.636 653.873 125.455C658.828 128.25 662.737 132.318 665.6 137.659C668.487 143 669.93 149.477 669.93 157.091ZM654.964 157.091C654.964 152.159 654.225 148 652.748 144.614C651.293 141.227 649.237 138.659 646.578 136.909C643.918 135.159 640.805 134.284 637.237 134.284C633.668 134.284 630.555 135.159 627.896 136.909C625.237 138.659 623.168 141.227 621.691 144.614C620.237 148 619.509 152.159 619.509 157.091C619.509 162.023 620.237 166.182 621.691 169.568C623.168 172.955 625.237 175.523 627.896 177.273C630.555 179.023 633.668 179.898 637.237 179.898C640.805 179.898 643.918 179.023 646.578 177.273C649.237 175.523 651.293 172.955 652.748 169.568C654.225 166.182 654.964 162.023 654.964 157.091ZM760.845 146.625H745.914C745.641 144.693 745.084 142.977 744.243 141.477C743.402 139.955 742.323 138.659 741.005 137.591C739.686 136.523 738.164 135.705 736.436 135.136C734.732 134.568 732.88 134.284 730.88 134.284C727.266 134.284 724.118 135.182 721.436 136.977C718.755 138.75 716.675 141.341 715.198 144.75C713.72 148.136 712.982 152.25 712.982 157.091C712.982 162.068 713.72 166.25 715.198 169.636C716.698 173.023 718.789 175.58 721.47 177.307C724.152 179.034 727.255 179.898 730.777 179.898C732.755 179.898 734.584 179.636 736.266 179.114C737.97 178.591 739.482 177.83 740.8 176.83C742.118 175.807 743.209 174.568 744.073 173.114C744.959 171.659 745.573 170 745.914 168.136L760.845 168.205C760.459 171.409 759.493 174.5 757.948 177.477C756.425 180.432 754.368 183.08 751.777 185.42C749.209 187.739 746.141 189.58 742.573 190.943C739.027 192.284 735.016 192.955 730.539 192.955C724.311 192.955 718.743 191.545 713.834 188.727C708.948 185.909 705.084 181.83 702.243 176.489C699.425 171.148 698.016 164.682 698.016 157.091C698.016 149.477 699.448 143 702.311 137.659C705.175 132.318 709.061 128.25 713.97 125.455C718.88 122.636 724.402 121.227 730.539 121.227C734.584 121.227 738.334 121.795 741.789 122.932C745.266 124.068 748.345 125.727 751.027 127.909C753.709 130.068 755.891 132.716 757.573 135.852C759.277 138.989 760.368 142.58 760.845 146.625ZM780.232 192H764.414L788.516 122.182H807.539L831.607 192H815.789L798.3 138.136H797.755L780.232 192ZM779.244 164.557H816.607V176.08H779.244V164.557ZM838.091 192V122.182H865.636C870.909 122.182 875.409 123.125 879.136 125.011C882.886 126.875 885.738 129.523 887.693 132.955C889.67 136.364 890.659 140.375 890.659 144.989C890.659 149.625 889.659 153.614 887.659 156.955C885.659 160.273 882.761 162.818 878.966 164.591C875.193 166.364 870.625 167.25 865.261 167.25H846.818V155.386H862.875C865.693 155.386 868.034 155 869.898 154.227C871.761 153.455 873.148 152.295 874.057 150.75C874.988 149.205 875.454 147.284 875.454 144.989C875.454 142.67 874.988 140.716 874.057 139.125C873.148 137.534 871.75 136.33 869.863 135.511C868 134.67 865.648 134.25 862.807 134.25H852.852V192H838.091ZM875.795 160.227L893.148 192H876.852L859.875 160.227H875.795ZM899.171 192V122.182H926.716C931.989 122.182 936.489 123.125 940.216 125.011C943.966 126.875 946.818 129.523 948.773 132.955C950.75 136.364 951.739 140.375 951.739 144.989C951.739 149.625 950.739 153.614 948.739 156.955C946.739 160.273 943.841 162.818 940.046 164.591C936.273 166.364 931.705 167.25 926.341 167.25H907.898V155.386H923.955C926.773 155.386 929.114 155 930.977 154.227C932.841 153.455 934.227 152.295 935.137 150.75C936.068 149.205 936.534 147.284 936.534 144.989C936.534 142.67 936.068 140.716 935.137 139.125C934.227 137.534 932.83 136.33 930.943 135.511C929.08 134.67 926.727 134.25 923.887 134.25H913.932V192H899.171ZM936.875 160.227L954.227 192H937.932L920.955 160.227H936.875ZM975.012 122.182V192H960.251V122.182H975.012ZM1049.4 157.091C1049.4 164.705 1047.95 171.182 1045.07 176.523C1042.2 181.864 1038.29 185.943 1033.34 188.761C1028.41 191.557 1022.86 192.955 1016.7 192.955C1010.5 192.955 1004.93 191.545 999.998 188.727C995.066 185.909 991.169 181.83 988.305 176.489C985.441 171.148 984.01 164.682 984.01 157.091C984.01 149.477 985.441 143 988.305 137.659C991.169 132.318 995.066 128.25 999.998 125.455C1004.93 122.636 1010.5 121.227 1016.7 121.227C1022.86 121.227 1028.41 122.636 1033.34 125.455C1038.29 128.25 1042.2 132.318 1045.07 137.659C1047.95 143 1049.4 149.477 1049.4 157.091ZM1034.43 157.091C1034.43 152.159 1033.69 148 1032.21 144.614C1030.76 141.227 1028.7 138.659 1026.04 136.909C1023.38 135.159 1020.27 134.284 1016.7 134.284C1013.13 134.284 1010.02 135.159 1007.36 136.909C1004.7 138.659 1002.63 141.227 1001.16 144.614C999.703 148 998.976 152.159 998.976 157.091C998.976 162.023 999.703 166.182 1001.16 169.568C1002.63 172.955 1004.7 175.523 1007.36 177.273C1010.02 179.023 1013.13 179.898 1016.7 179.898C1020.27 179.898 1023.38 179.023 1026.04 177.273C1028.7 175.523 1030.76 172.955 1032.21 169.568C1033.69 166.182 1034.43 162.023 1034.43 157.091ZM1116.81 122.182V192H1104.06L1073.68 148.057H1073.17V192H1058.41V122.182H1071.37L1101.5 166.091H1102.12V122.182H1116.81Z" fill="url(#paint1_linear_4_110)"/>
<path d="M247.421 277V250.818H263.119V253.631H250.591V262.477H261.943V265.29H250.591V277H247.421ZM278.925 268.972V257.364H281.942V277H278.925V273.676H278.72C278.26 274.673 277.544 275.521 276.573 276.22C275.601 276.911 274.374 277.256 272.891 277.256C271.664 277.256 270.573 276.987 269.618 276.45C268.664 275.905 267.914 275.087 267.368 273.996C266.823 272.896 266.55 271.511 266.55 269.841V257.364H269.567V269.636C269.567 271.068 269.968 272.21 270.769 273.062C271.578 273.915 272.61 274.341 273.862 274.341C274.612 274.341 275.375 274.149 276.151 273.766C276.935 273.382 277.591 272.794 278.119 272.001C278.656 271.209 278.925 270.199 278.925 268.972ZM290.125 250.818V277H287.108V250.818H290.125ZM298.308 250.818V277H295.291V250.818H298.308ZM317.383 261.761L314.673 262.528C314.502 262.077 314.251 261.638 313.918 261.212C313.595 260.777 313.151 260.419 312.589 260.138C312.026 259.857 311.306 259.716 310.428 259.716C309.227 259.716 308.225 259.993 307.424 260.547C306.631 261.092 306.235 261.787 306.235 262.631C306.235 263.381 306.508 263.973 307.053 264.408C307.599 264.842 308.451 265.205 309.61 265.494L312.525 266.21C314.281 266.636 315.589 267.288 316.45 268.166C317.31 269.036 317.741 270.156 317.741 271.528C317.741 272.653 317.417 273.659 316.769 274.545C316.13 275.432 315.235 276.131 314.085 276.642C312.934 277.153 311.596 277.409 310.07 277.409C308.068 277.409 306.41 276.974 305.097 276.105C303.785 275.236 302.954 273.966 302.604 272.295L305.468 271.58C305.741 272.636 306.256 273.429 307.015 273.957C307.782 274.486 308.783 274.75 310.019 274.75C311.426 274.75 312.542 274.452 313.369 273.855C314.204 273.25 314.622 272.526 314.622 271.682C314.622 271 314.383 270.429 313.906 269.969C313.428 269.5 312.695 269.151 311.707 268.92L308.434 268.153C306.636 267.727 305.315 267.067 304.471 266.172C303.636 265.268 303.218 264.139 303.218 262.784C303.218 261.676 303.529 260.696 304.151 259.844C304.782 258.991 305.639 258.322 306.721 257.837C307.812 257.351 309.048 257.108 310.428 257.108C312.372 257.108 313.897 257.534 315.005 258.386C316.122 259.239 316.914 260.364 317.383 261.761ZM330.462 257.364V259.92H320.286V257.364H330.462ZM323.252 252.659H326.269V271.375C326.269 272.227 326.393 272.866 326.64 273.293C326.895 273.71 327.219 273.991 327.611 274.136C328.012 274.273 328.434 274.341 328.877 274.341C329.209 274.341 329.482 274.324 329.695 274.29C329.908 274.247 330.079 274.213 330.206 274.188L330.82 276.898C330.616 276.974 330.33 277.051 329.964 277.128C329.597 277.213 329.133 277.256 328.57 277.256C327.718 277.256 326.883 277.072 326.064 276.706C325.255 276.339 324.581 275.781 324.045 275.031C323.516 274.281 323.252 273.335 323.252 272.193V252.659ZM340.419 277.46C339.175 277.46 338.045 277.226 337.031 276.757C336.017 276.28 335.212 275.594 334.615 274.699C334.018 273.795 333.72 272.705 333.72 271.426C333.72 270.301 333.942 269.389 334.385 268.69C334.828 267.983 335.42 267.429 336.162 267.028C336.903 266.628 337.721 266.33 338.616 266.134C339.52 265.929 340.427 265.767 341.339 265.648C342.533 265.494 343.5 265.379 344.241 265.303C344.991 265.217 345.537 265.077 345.878 264.881C346.227 264.685 346.402 264.344 346.402 263.858V263.756C346.402 262.494 346.057 261.514 345.366 260.815C344.685 260.116 343.649 259.767 342.26 259.767C340.819 259.767 339.69 260.082 338.872 260.713C338.054 261.344 337.479 262.017 337.146 262.733L334.283 261.71C334.794 260.517 335.476 259.588 336.328 258.923C337.189 258.25 338.126 257.781 339.141 257.517C340.163 257.244 341.169 257.108 342.158 257.108C342.788 257.108 343.513 257.185 344.331 257.338C345.158 257.483 345.954 257.786 346.721 258.246C347.497 258.706 348.141 259.401 348.652 260.33C349.163 261.259 349.419 262.503 349.419 264.062V277H346.402V274.341H346.248C346.044 274.767 345.703 275.223 345.226 275.709C344.748 276.195 344.114 276.608 343.321 276.949C342.528 277.29 341.561 277.46 340.419 277.46ZM340.879 274.75C342.072 274.75 343.078 274.516 343.896 274.047C344.723 273.578 345.345 272.973 345.763 272.232C346.189 271.49 346.402 270.71 346.402 269.892V267.131C346.274 267.284 345.993 267.425 345.558 267.553C345.132 267.672 344.638 267.778 344.075 267.872C343.521 267.957 342.98 268.034 342.452 268.102C341.932 268.162 341.51 268.213 341.186 268.256C340.402 268.358 339.669 268.524 338.987 268.754C338.314 268.976 337.768 269.312 337.351 269.764C336.942 270.207 336.737 270.812 336.737 271.58C336.737 272.628 337.125 273.42 337.9 273.957C338.685 274.486 339.677 274.75 340.879 274.75ZM362.543 277.409C360.702 277.409 359.117 276.974 357.787 276.105C356.458 275.236 355.435 274.038 354.719 272.513C354.003 270.987 353.645 269.244 353.645 267.284C353.645 265.29 354.012 263.53 354.745 262.004C355.486 260.47 356.517 259.273 357.838 258.412C359.168 257.543 360.719 257.108 362.492 257.108C363.873 257.108 365.117 257.364 366.225 257.875C367.333 258.386 368.24 259.102 368.948 260.023C369.655 260.943 370.094 262.017 370.265 263.244H367.248C367.017 262.349 366.506 261.557 365.713 260.866C364.929 260.168 363.873 259.818 362.543 259.818C361.367 259.818 360.336 260.125 359.449 260.739C358.571 261.344 357.885 262.2 357.391 263.308C356.905 264.408 356.662 265.699 356.662 267.182C356.662 268.699 356.901 270.02 357.378 271.145C357.864 272.27 358.546 273.143 359.424 273.766C360.31 274.388 361.35 274.699 362.543 274.699C363.327 274.699 364.039 274.562 364.678 274.29C365.317 274.017 365.858 273.625 366.301 273.114C366.745 272.602 367.06 271.989 367.248 271.273H370.265C370.094 272.432 369.672 273.476 368.999 274.405C368.334 275.325 367.452 276.058 366.353 276.604C365.262 277.141 363.992 277.409 362.543 277.409ZM377.128 269.841L377.076 266.108H377.69L386.281 257.364H390.014L380.86 266.619H380.605L377.128 269.841ZM374.315 277V250.818H377.332V277H374.315ZM386.792 277L379.122 267.284L381.27 265.188L390.628 277H386.792ZM411.791 277H403.711V250.818H412.149C414.688 250.818 416.862 251.342 418.669 252.391C420.475 253.43 421.86 254.926 422.823 256.878C423.786 258.821 424.268 261.148 424.268 263.858C424.268 266.585 423.782 268.933 422.811 270.902C421.839 272.862 420.424 274.371 418.566 275.428C416.708 276.476 414.45 277 411.791 277ZM406.882 274.188H411.586C413.751 274.188 415.545 273.77 416.968 272.935C418.392 272.099 419.453 270.911 420.152 269.368C420.85 267.825 421.2 265.989 421.2 263.858C421.2 261.744 420.855 259.925 420.164 258.399C419.474 256.865 418.443 255.689 417.071 254.871C415.698 254.044 413.99 253.631 411.944 253.631H406.882V274.188ZM437.05 277.409C435.158 277.409 433.526 276.991 432.154 276.156C430.79 275.312 429.738 274.136 428.996 272.628C428.263 271.111 427.897 269.347 427.897 267.335C427.897 265.324 428.263 263.551 428.996 262.017C429.738 260.474 430.769 259.273 432.09 258.412C433.419 257.543 434.97 257.108 436.743 257.108C437.766 257.108 438.776 257.278 439.773 257.619C440.77 257.96 441.678 258.514 442.496 259.281C443.314 260.04 443.966 261.045 444.452 262.298C444.938 263.551 445.181 265.094 445.181 266.926V268.205H430.044V265.597H442.113C442.113 264.489 441.891 263.5 441.448 262.631C441.013 261.761 440.391 261.075 439.581 260.572C438.78 260.07 437.834 259.818 436.743 259.818C435.542 259.818 434.502 260.116 433.624 260.713C432.755 261.301 432.086 262.068 431.617 263.014C431.148 263.96 430.914 264.974 430.914 266.057V267.795C430.914 269.278 431.169 270.536 431.681 271.567C432.201 272.589 432.921 273.369 433.841 273.906C434.762 274.435 435.831 274.699 437.05 274.699C437.843 274.699 438.559 274.588 439.198 274.366C439.845 274.136 440.404 273.795 440.872 273.344C441.341 272.884 441.703 272.312 441.959 271.631L444.874 272.449C444.567 273.438 444.051 274.307 443.327 275.057C442.603 275.798 441.708 276.378 440.642 276.795C439.577 277.205 438.38 277.409 437.05 277.409ZM464.869 257.364L457.608 277H454.54L447.278 257.364H450.551L455.972 273.011H456.176L461.597 257.364H464.869ZM476.021 277.409C474.129 277.409 472.497 276.991 471.125 276.156C469.762 275.312 468.709 274.136 467.967 272.628C467.235 271.111 466.868 269.347 466.868 267.335C466.868 265.324 467.235 263.551 467.967 262.017C468.709 260.474 469.74 259.273 471.061 258.412C472.391 257.543 473.942 257.108 475.715 257.108C476.737 257.108 477.747 257.278 478.744 257.619C479.742 257.96 480.649 258.514 481.467 259.281C482.286 260.04 482.938 261.045 483.423 262.298C483.909 263.551 484.152 265.094 484.152 266.926V268.205H469.016V265.597H481.084C481.084 264.489 480.862 263.5 480.419 262.631C479.985 261.761 479.362 261.075 478.553 260.572C477.752 260.07 476.806 259.818 475.715 259.818C474.513 259.818 473.473 260.116 472.595 260.713C471.726 261.301 471.057 262.068 470.588 263.014C470.119 263.96 469.885 264.974 469.885 266.057V267.795C469.885 269.278 470.141 270.536 470.652 271.567C471.172 272.589 471.892 273.369 472.813 273.906C473.733 274.435 474.803 274.699 476.021 274.699C476.814 274.699 477.53 274.588 478.169 274.366C478.817 274.136 479.375 273.795 479.844 273.344C480.313 272.884 480.675 272.312 480.931 271.631L483.845 272.449C483.538 273.438 483.023 274.307 482.298 275.057C481.574 275.798 480.679 276.378 479.614 276.795C478.548 277.205 477.351 277.409 476.021 277.409ZM491.399 250.818V277H488.382V250.818H491.399ZM504.542 277.409C502.769 277.409 501.214 276.987 499.876 276.143C498.546 275.3 497.506 274.119 496.756 272.602C496.015 271.085 495.644 269.312 495.644 267.284C495.644 265.239 496.015 263.453 496.756 261.928C497.506 260.402 498.546 259.217 499.876 258.374C501.214 257.53 502.769 257.108 504.542 257.108C506.315 257.108 507.866 257.53 509.195 258.374C510.533 259.217 511.573 260.402 512.315 261.928C513.065 263.453 513.44 265.239 513.44 267.284C513.44 269.312 513.065 271.085 512.315 272.602C511.573 274.119 510.533 275.3 509.195 276.143C507.866 276.987 506.315 277.409 504.542 277.409ZM504.542 274.699C505.888 274.699 506.996 274.354 507.866 273.663C508.735 272.973 509.379 272.065 509.796 270.94C510.214 269.815 510.423 268.597 510.423 267.284C510.423 265.972 510.214 264.749 509.796 263.615C509.379 262.482 508.735 261.565 507.866 260.866C506.996 260.168 505.888 259.818 504.542 259.818C503.195 259.818 502.087 260.168 501.218 260.866C500.349 261.565 499.705 262.482 499.288 263.615C498.87 264.749 498.661 265.972 498.661 267.284C498.661 268.597 498.87 269.815 499.288 270.94C499.705 272.065 500.349 272.973 501.218 273.663C502.087 274.354 503.195 274.699 504.542 274.699ZM517.685 284.364V257.364H520.6V260.483H520.958C521.179 260.142 521.486 259.707 521.878 259.179C522.279 258.642 522.85 258.165 523.591 257.747C524.341 257.321 525.355 257.108 526.634 257.108C528.287 257.108 529.745 257.521 531.006 258.348C532.267 259.175 533.252 260.347 533.959 261.864C534.667 263.381 535.02 265.17 535.02 267.233C535.02 269.312 534.667 271.115 533.959 272.641C533.252 274.158 532.272 275.334 531.019 276.169C529.766 276.996 528.321 277.409 526.685 277.409C525.424 277.409 524.414 277.2 523.655 276.783C522.897 276.357 522.313 275.875 521.904 275.338C521.495 274.793 521.179 274.341 520.958 273.983H520.702V284.364H517.685ZM520.651 267.182C520.651 268.665 520.868 269.973 521.303 271.107C521.738 272.232 522.373 273.114 523.208 273.753C524.043 274.384 525.066 274.699 526.276 274.699C527.537 274.699 528.59 274.366 529.434 273.702C530.286 273.028 530.925 272.125 531.351 270.991C531.786 269.849 532.003 268.58 532.003 267.182C532.003 265.801 531.79 264.557 531.364 263.449C530.946 262.332 530.311 261.45 529.459 260.803C528.615 260.146 527.554 259.818 526.276 259.818C525.049 259.818 524.017 260.129 523.182 260.751C522.347 261.365 521.716 262.226 521.29 263.334C520.864 264.433 520.651 265.716 520.651 267.182ZM547.496 277.409C545.603 277.409 543.971 276.991 542.599 276.156C541.236 275.312 540.183 274.136 539.442 272.628C538.709 271.111 538.342 269.347 538.342 267.335C538.342 265.324 538.709 263.551 539.442 262.017C540.183 260.474 541.214 259.273 542.535 258.412C543.865 257.543 545.416 257.108 547.189 257.108C548.211 257.108 549.221 257.278 550.219 257.619C551.216 257.96 552.123 258.514 552.942 259.281C553.76 260.04 554.412 261.045 554.897 262.298C555.383 263.551 555.626 265.094 555.626 266.926V268.205H540.49V265.597H552.558C552.558 264.489 552.336 263.5 551.893 262.631C551.459 261.761 550.836 261.075 550.027 260.572C549.226 260.07 548.28 259.818 547.189 259.818C545.987 259.818 544.947 260.116 544.069 260.713C543.2 261.301 542.531 262.068 542.062 263.014C541.594 263.96 541.359 264.974 541.359 266.057V267.795C541.359 269.278 541.615 270.536 542.126 271.567C542.646 272.589 543.366 273.369 544.287 273.906C545.207 274.435 546.277 274.699 547.496 274.699C548.288 274.699 549.004 274.588 549.643 274.366C550.291 274.136 550.849 273.795 551.318 273.344C551.787 272.884 552.149 272.312 552.405 271.631L555.319 272.449C555.013 273.438 554.497 274.307 553.772 275.057C553.048 275.798 552.153 276.378 551.088 276.795C550.022 277.205 548.825 277.409 547.496 277.409ZM559.856 277V257.364H562.77V260.33H562.975C563.333 259.358 563.981 258.57 564.918 257.964C565.856 257.359 566.912 257.057 568.089 257.057C568.31 257.057 568.587 257.061 568.92 257.07C569.252 257.078 569.503 257.091 569.674 257.108V260.176C569.572 260.151 569.337 260.112 568.971 260.061C568.613 260.001 568.234 259.972 567.833 259.972C566.878 259.972 566.026 260.172 565.276 260.572C564.535 260.964 563.947 261.51 563.512 262.209C563.086 262.899 562.873 263.687 562.873 264.574V277H559.856ZM590.07 277.358C588.348 277.358 586.865 277.043 585.621 276.412C584.377 275.781 583.418 274.916 582.745 273.817C582.071 272.717 581.735 271.46 581.735 270.045C581.735 268.955 581.965 267.987 582.425 267.143C582.894 266.291 583.537 265.503 584.355 264.778C585.182 264.045 586.132 263.312 587.206 262.58L590.99 259.767C591.732 259.281 592.324 258.761 592.767 258.207C593.219 257.653 593.445 256.929 593.445 256.034C593.445 255.369 593.151 254.726 592.563 254.104C591.983 253.482 591.221 253.17 590.275 253.17C589.61 253.17 589.022 253.341 588.51 253.682C588.007 254.014 587.611 254.44 587.321 254.96C587.04 255.472 586.9 256 586.9 256.545C586.9 257.159 587.066 257.781 587.398 258.412C587.739 259.034 588.169 259.673 588.689 260.33C589.218 260.977 589.763 261.642 590.326 262.324L602.343 277H598.712L588.792 265.034C587.871 263.926 587.036 262.92 586.286 262.017C585.536 261.114 584.939 260.223 584.496 259.345C584.053 258.467 583.831 257.517 583.831 256.494C583.831 255.318 584.091 254.287 584.611 253.401C585.14 252.506 585.877 251.811 586.823 251.317C587.777 250.814 588.894 250.562 590.172 250.562C591.485 250.562 592.614 250.818 593.56 251.33C594.506 251.832 595.235 252.501 595.746 253.337C596.257 254.163 596.513 255.062 596.513 256.034C596.513 257.287 596.202 258.374 595.58 259.294C594.958 260.214 594.11 261.071 593.036 261.864L587.82 265.75C586.644 266.619 585.847 267.463 585.429 268.281C585.012 269.099 584.803 269.687 584.803 270.045C584.803 270.864 585.016 271.626 585.442 272.334C585.868 273.041 586.469 273.612 587.245 274.047C588.02 274.482 588.928 274.699 589.968 274.699C590.956 274.699 591.919 274.49 592.857 274.072C593.794 273.646 594.642 273.033 595.401 272.232C596.168 271.43 596.773 270.467 597.216 269.342C597.668 268.217 597.894 266.952 597.894 265.545H600.809C600.809 267.284 600.608 268.703 600.208 269.803C599.807 270.902 599.355 271.763 598.853 272.385C598.35 273.007 597.945 273.472 597.638 273.778C597.536 273.906 597.442 274.034 597.357 274.162C597.272 274.29 597.178 274.418 597.076 274.545C596.232 275.491 595.167 276.199 593.88 276.668C592.593 277.128 591.323 277.358 590.07 277.358ZM615.497 250.818H619.281L628.178 272.551H628.485L637.383 250.818H641.167V277H638.201V257.108H637.945L629.764 277H626.9L618.718 257.108H618.463V277H615.497V250.818ZM646.755 277V257.364H649.772V277H646.755ZM648.289 254.091C647.701 254.091 647.194 253.891 646.768 253.49C646.35 253.089 646.141 252.608 646.141 252.045C646.141 251.483 646.35 251.001 646.768 250.601C647.194 250.2 647.701 250 648.289 250C648.877 250 649.38 250.2 649.798 250.601C650.224 251.001 650.437 251.483 650.437 252.045C650.437 252.608 650.224 253.089 649.798 253.49C649.38 253.891 648.877 254.091 648.289 254.091ZM662.915 277.409C661.074 277.409 659.489 276.974 658.159 276.105C656.83 275.236 655.807 274.038 655.091 272.513C654.375 270.987 654.017 269.244 654.017 267.284C654.017 265.29 654.384 263.53 655.117 262.004C655.858 260.47 656.89 259.273 658.211 258.412C659.54 257.543 661.091 257.108 662.864 257.108C664.245 257.108 665.489 257.364 666.597 257.875C667.705 258.386 668.613 259.102 669.32 260.023C670.027 260.943 670.466 262.017 670.637 263.244H667.62C667.39 262.349 666.878 261.557 666.086 260.866C665.302 260.168 664.245 259.818 662.915 259.818C661.739 259.818 660.708 260.125 659.821 260.739C658.944 261.344 658.257 262.2 657.763 263.308C657.277 264.408 657.034 265.699 657.034 267.182C657.034 268.699 657.273 270.02 657.75 271.145C658.236 272.27 658.918 273.143 659.796 273.766C660.682 274.388 661.722 274.699 662.915 274.699C663.699 274.699 664.411 274.562 665.05 274.29C665.689 274.017 666.23 273.625 666.674 273.114C667.117 272.602 667.432 271.989 667.62 271.273H670.637C670.466 272.432 670.044 273.476 669.371 274.405C668.706 275.325 667.824 276.058 666.725 276.604C665.634 277.141 664.364 277.409 662.915 277.409ZM674.687 277V257.364H677.602V260.33H677.807C678.165 259.358 678.812 258.57 679.75 257.964C680.687 257.359 681.744 257.057 682.92 257.057C683.142 257.057 683.419 257.061 683.751 257.07C684.084 257.078 684.335 257.091 684.505 257.108V260.176C684.403 260.151 684.169 260.112 683.802 260.061C683.444 260.001 683.065 259.972 682.665 259.972C681.71 259.972 680.858 260.172 680.108 260.572C679.366 260.964 678.778 261.51 678.344 262.209C677.917 262.899 677.704 263.687 677.704 264.574V277H674.687ZM695.101 277.409C693.329 277.409 691.773 276.987 690.435 276.143C689.106 275.3 688.066 274.119 687.316 272.602C686.574 271.085 686.204 269.312 686.204 267.284C686.204 265.239 686.574 263.453 687.316 261.928C688.066 260.402 689.106 259.217 690.435 258.374C691.773 257.53 693.329 257.108 695.101 257.108C696.874 257.108 698.425 257.53 699.755 258.374C701.093 259.217 702.133 260.402 702.874 261.928C703.624 263.453 703.999 265.239 703.999 267.284C703.999 269.312 703.624 271.085 702.874 272.602C702.133 274.119 701.093 275.3 699.755 276.143C698.425 276.987 696.874 277.409 695.101 277.409ZM695.101 274.699C696.448 274.699 697.556 274.354 698.425 273.663C699.295 272.973 699.938 272.065 700.356 270.94C700.773 269.815 700.982 268.597 700.982 267.284C700.982 265.972 700.773 264.749 700.356 263.615C699.938 262.482 699.295 261.565 698.425 260.866C697.556 260.168 696.448 259.818 695.101 259.818C693.755 259.818 692.647 260.168 691.778 260.866C690.908 261.565 690.265 262.482 689.847 263.615C689.43 264.749 689.221 265.972 689.221 267.284C689.221 268.597 689.43 269.815 689.847 270.94C690.265 272.065 690.908 272.973 691.778 273.663C692.647 274.354 693.755 274.699 695.101 274.699ZM722.154 261.761L719.443 262.528C719.273 262.077 719.022 261.638 718.689 261.212C718.365 260.777 717.922 260.419 717.36 260.138C716.797 259.857 716.077 259.716 715.199 259.716C713.997 259.716 712.996 259.993 712.195 260.547C711.402 261.092 711.006 261.787 711.006 262.631C711.006 263.381 711.279 263.973 711.824 264.408C712.37 264.842 713.222 265.205 714.381 265.494L717.296 266.21C719.051 266.636 720.36 267.288 721.22 268.166C722.081 269.036 722.512 270.156 722.512 271.528C722.512 272.653 722.188 273.659 721.54 274.545C720.901 275.432 720.006 276.131 718.855 276.642C717.705 277.153 716.367 277.409 714.841 277.409C712.838 277.409 711.181 276.974 709.868 276.105C708.556 275.236 707.725 273.966 707.375 272.295L710.239 271.58C710.512 272.636 711.027 273.429 711.786 273.957C712.553 274.486 713.554 274.75 714.79 274.75C716.196 274.75 717.313 274.452 718.139 273.855C718.975 273.25 719.392 272.526 719.392 271.682C719.392 271 719.154 270.429 718.676 269.969C718.199 269.5 717.466 269.151 716.478 268.92L713.205 268.153C711.407 267.727 710.085 267.067 709.242 266.172C708.407 265.268 707.989 264.139 707.989 262.784C707.989 261.676 708.3 260.696 708.922 259.844C709.553 258.991 710.409 258.322 711.492 257.837C712.583 257.351 713.818 257.108 715.199 257.108C717.142 257.108 718.668 257.534 719.776 258.386C720.892 259.239 721.685 260.364 722.154 261.761ZM734.926 277.409C733.034 277.409 731.402 276.991 730.03 276.156C728.666 275.312 727.614 274.136 726.872 272.628C726.139 271.111 725.773 269.347 725.773 267.335C725.773 265.324 726.139 263.551 726.872 262.017C727.614 260.474 728.645 259.273 729.966 258.412C731.295 257.543 732.847 257.108 734.619 257.108C735.642 257.108 736.652 257.278 737.649 257.619C738.646 257.96 739.554 258.514 740.372 259.281C741.19 260.04 741.842 261.045 742.328 262.298C742.814 263.551 743.057 265.094 743.057 266.926V268.205H727.92V265.597H739.989C739.989 264.489 739.767 263.5 739.324 262.631C738.889 261.761 738.267 261.075 737.457 260.572C736.656 260.07 735.71 259.818 734.619 259.818C733.418 259.818 732.378 260.116 731.5 260.713C730.631 261.301 729.962 262.068 729.493 263.014C729.024 263.96 728.79 264.974 728.79 266.057V267.795C728.79 269.278 729.045 270.536 729.557 271.567C730.077 272.589 730.797 273.369 731.717 273.906C732.638 274.435 733.707 274.699 734.926 274.699C735.719 274.699 736.435 274.588 737.074 274.366C737.722 274.136 738.28 273.795 738.749 273.344C739.217 272.884 739.58 272.312 739.835 271.631L742.75 272.449C742.443 273.438 741.928 274.307 741.203 275.057C740.479 275.798 739.584 276.378 738.518 276.795C737.453 277.205 736.256 277.409 734.926 277.409ZM747.286 277V257.364H750.201V260.33H750.406C750.764 259.358 751.411 258.57 752.349 257.964C753.286 257.359 754.343 257.057 755.519 257.057C755.741 257.057 756.018 257.061 756.35 257.07C756.683 257.078 756.934 257.091 757.104 257.108V260.176C757.002 260.151 756.768 260.112 756.401 260.061C756.043 260.001 755.664 259.972 755.264 259.972C754.309 259.972 753.457 260.172 752.707 260.572C751.965 260.964 751.377 261.51 750.943 262.209C750.516 262.899 750.303 263.687 750.303 264.574V277H747.286ZM776.975 257.364L769.714 277H766.646L759.384 257.364H762.657L768.078 273.011H768.282L773.703 257.364H776.975ZM780.598 277V257.364H783.615V277H780.598ZM782.132 254.091C781.544 254.091 781.036 253.891 780.61 253.49C780.193 253.089 779.984 252.608 779.984 252.045C779.984 251.483 780.193 251.001 780.61 250.601C781.036 250.2 781.544 250 782.132 250C782.72 250 783.223 250.2 783.64 250.601C784.066 251.001 784.279 251.483 784.279 252.045C784.279 252.608 784.066 253.089 783.64 253.49C783.223 253.891 782.72 254.091 782.132 254.091ZM796.758 277.409C794.917 277.409 793.332 276.974 792.002 276.105C790.673 275.236 789.65 274.038 788.934 272.513C788.218 270.987 787.86 269.244 787.86 267.284C787.86 265.29 788.227 263.53 788.96 262.004C789.701 260.47 790.732 259.273 792.053 258.412C793.383 257.543 794.934 257.108 796.707 257.108C798.087 257.108 799.332 257.364 800.44 257.875C801.548 258.386 802.455 259.102 803.163 260.023C803.87 260.943 804.309 262.017 804.479 263.244H801.462C801.232 262.349 800.721 261.557 799.928 260.866C799.144 260.168 798.087 259.818 796.758 259.818C795.582 259.818 794.55 260.125 793.664 260.739C792.786 261.344 792.1 262.2 791.606 263.308C791.12 264.408 790.877 265.699 790.877 267.182C790.877 268.699 791.116 270.02 791.593 271.145C792.079 272.27 792.761 273.143 793.638 273.766C794.525 274.388 795.565 274.699 796.758 274.699C797.542 274.699 798.254 274.562 798.893 274.29C799.532 274.017 800.073 273.625 800.516 273.114C800.96 272.602 801.275 271.989 801.462 271.273H804.479C804.309 272.432 803.887 273.476 803.214 274.405C802.549 275.325 801.667 276.058 800.567 276.604C799.477 277.141 798.207 277.409 796.758 277.409ZM816.763 277.409C814.871 277.409 813.239 276.991 811.867 276.156C810.503 275.312 809.45 274.136 808.709 272.628C807.976 271.111 807.609 269.347 807.609 267.335C807.609 265.324 807.976 263.551 808.709 262.017C809.45 260.474 810.482 259.273 811.803 258.412C813.132 257.543 814.683 257.108 816.456 257.108C817.479 257.108 818.489 257.278 819.486 257.619C820.483 257.96 821.391 258.514 822.209 259.281C823.027 260.04 823.679 261.045 824.165 262.298C824.651 263.551 824.894 265.094 824.894 266.926V268.205H809.757V265.597H821.825C821.825 264.489 821.604 263.5 821.161 262.631C820.726 261.761 820.104 261.075 819.294 260.572C818.493 260.07 817.547 259.818 816.456 259.818C815.254 259.818 814.215 260.116 813.337 260.713C812.467 261.301 811.798 262.068 811.33 263.014C810.861 263.96 810.627 264.974 810.627 266.057V267.795C810.627 269.278 810.882 270.536 811.394 271.567C811.913 272.589 812.634 273.369 813.554 273.906C814.475 274.435 815.544 274.699 816.763 274.699C817.555 274.699 818.271 274.588 818.911 274.366C819.558 274.136 820.117 273.795 820.585 273.344C821.054 272.884 821.416 272.312 821.672 271.631L824.587 272.449C824.28 273.438 823.764 274.307 823.04 275.057C822.315 275.798 821.421 276.378 820.355 276.795C819.29 277.205 818.092 277.409 816.763 277.409ZM843.032 261.761L840.322 262.528C840.151 262.077 839.9 261.638 839.568 261.212C839.244 260.777 838.801 260.419 838.238 260.138C837.676 259.857 836.955 259.716 836.078 259.716C834.876 259.716 833.874 259.993 833.073 260.547C832.281 261.092 831.884 261.787 831.884 262.631C831.884 263.381 832.157 263.973 832.703 264.408C833.248 264.842 834.1 265.205 835.259 265.494L838.174 266.21C839.93 266.636 841.238 267.288 842.099 268.166C842.96 269.036 843.39 270.156 843.39 271.528C843.39 272.653 843.066 273.659 842.419 274.545C841.779 275.432 840.884 276.131 839.734 276.642C838.583 277.153 837.245 277.409 835.72 277.409C833.717 277.409 832.059 276.974 830.747 276.105C829.434 275.236 828.603 273.966 828.254 272.295L831.117 271.58C831.39 272.636 831.906 273.429 832.664 273.957C833.431 274.486 834.433 274.75 835.669 274.75C837.075 274.75 838.191 274.452 839.018 273.855C839.853 273.25 840.271 272.526 840.271 271.682C840.271 271 840.032 270.429 839.555 269.969C839.078 269.5 838.345 269.151 837.356 268.92L834.083 268.153C832.285 267.727 830.964 267.067 830.12 266.172C829.285 265.268 828.867 264.139 828.867 262.784C828.867 261.676 829.178 260.696 829.801 259.844C830.431 258.991 831.288 258.322 832.37 257.837C833.461 257.351 834.697 257.108 836.078 257.108C838.021 257.108 839.546 257.534 840.654 258.386C841.771 259.239 842.563 260.364 843.032 261.761ZM858.82 277H855.496L865.109 250.818H868.382L877.996 277H874.672L866.848 254.96H866.643L858.82 277ZM860.047 266.773H873.445V269.585H860.047V266.773ZM881.305 277V257.364H884.219V260.33H884.424C884.782 259.358 885.43 258.57 886.367 257.964C887.305 257.359 888.362 257.057 889.538 257.057C889.759 257.057 890.036 257.061 890.369 257.07C890.701 257.078 890.952 257.091 891.123 257.108V260.176C891.021 260.151 890.786 260.112 890.42 260.061C890.062 260.001 889.683 259.972 889.282 259.972C888.327 259.972 887.475 260.172 886.725 260.572C885.984 260.964 885.396 261.51 884.961 262.209C884.535 262.899 884.322 263.687 884.322 264.574V277H881.305ZM901.719 277.409C899.878 277.409 898.293 276.974 896.963 276.105C895.634 275.236 894.611 274.038 893.895 272.513C893.179 270.987 892.821 269.244 892.821 267.284C892.821 265.29 893.188 263.53 893.921 262.004C894.662 260.47 895.693 259.273 897.014 258.412C898.344 257.543 899.895 257.108 901.668 257.108C903.048 257.108 904.293 257.364 905.401 257.875C906.509 258.386 907.416 259.102 908.124 260.023C908.831 260.943 909.27 262.017 909.44 263.244H906.423C906.193 262.349 905.682 261.557 904.889 260.866C904.105 260.168 903.048 259.818 901.719 259.818C900.543 259.818 899.511 260.125 898.625 260.739C897.747 261.344 897.061 262.2 896.567 263.308C896.081 264.408 895.838 265.699 895.838 267.182C895.838 268.699 896.077 270.02 896.554 271.145C897.04 272.27 897.722 273.143 898.6 273.766C899.486 274.388 900.526 274.699 901.719 274.699C902.503 274.699 903.215 274.562 903.854 274.29C904.493 274.017 905.034 273.625 905.477 273.114C905.921 272.602 906.236 271.989 906.423 271.273H909.44C909.27 272.432 908.848 273.476 908.175 274.405C907.51 275.325 906.628 276.058 905.529 276.604C904.438 277.141 903.168 277.409 901.719 277.409ZM916.508 265.188V277H913.491V250.818H916.508V260.432H916.764C917.224 259.418 917.914 258.612 918.835 258.016C919.764 257.411 921 257.108 922.542 257.108C923.88 257.108 925.052 257.376 926.058 257.913C927.063 258.442 927.843 259.256 928.397 260.355C928.96 261.446 929.241 262.835 929.241 264.523V277H926.224V264.727C926.224 263.168 925.819 261.962 925.009 261.109C924.208 260.249 923.096 259.818 921.673 259.818C920.684 259.818 919.798 260.027 919.014 260.445C918.238 260.862 917.625 261.472 917.173 262.273C916.73 263.074 916.508 264.045 916.508 265.188ZM934.401 277V257.364H937.418V277H934.401ZM935.935 254.091C935.347 254.091 934.839 253.891 934.413 253.49C933.996 253.089 933.787 252.608 933.787 252.045C933.787 251.483 933.996 251.001 934.413 250.601C934.839 250.2 935.347 250 935.935 250C936.523 250 937.026 250.2 937.443 250.601C937.869 251.001 938.082 251.483 938.082 252.045C938.082 252.608 937.869 253.089 937.443 253.49C937.026 253.891 936.523 254.091 935.935 254.091ZM951.123 257.364V259.92H940.947V257.364H951.123ZM943.913 252.659H946.93V271.375C946.93 272.227 947.054 272.866 947.301 273.293C947.557 273.71 947.88 273.991 948.272 274.136C948.673 274.273 949.095 274.341 949.538 274.341C949.87 274.341 950.143 274.324 950.356 274.29C950.569 274.247 950.74 274.213 950.868 274.188L951.481 276.898C951.277 276.974 950.991 277.051 950.625 277.128C950.258 277.213 949.794 277.256 949.231 277.256C948.379 277.256 947.544 277.072 946.726 276.706C945.916 276.339 945.243 275.781 944.706 275.031C944.177 274.281 943.913 273.335 943.913 272.193V252.659ZM963.324 277.409C961.432 277.409 959.8 276.991 958.427 276.156C957.064 275.312 956.011 274.136 955.27 272.628C954.537 271.111 954.17 269.347 954.17 267.335C954.17 265.324 954.537 263.551 955.27 262.017C956.011 260.474 957.042 259.273 958.363 258.412C959.693 257.543 961.244 257.108 963.017 257.108C964.04 257.108 965.05 257.278 966.047 257.619C967.044 257.96 967.952 258.514 968.77 259.281C969.588 260.04 970.24 261.045 970.726 262.298C971.211 263.551 971.454 265.094 971.454 266.926V268.205H956.318V265.597H968.386C968.386 264.489 968.165 263.5 967.721 262.631C967.287 261.761 966.665 261.075 965.855 260.572C965.054 260.07 964.108 259.818 963.017 259.818C961.815 259.818 960.775 260.116 959.898 260.713C959.028 261.301 958.359 262.068 957.89 263.014C957.422 263.96 957.187 264.974 957.187 266.057V267.795C957.187 269.278 957.443 270.536 957.954 271.567C958.474 272.589 959.194 273.369 960.115 273.906C961.035 274.435 962.105 274.699 963.324 274.699C964.116 274.699 964.832 274.588 965.471 274.366C966.119 274.136 966.677 273.795 967.146 273.344C967.615 272.884 967.977 272.312 968.233 271.631L971.148 272.449C970.841 273.438 970.325 274.307 969.601 275.057C968.876 275.798 967.981 276.378 966.916 276.795C965.851 277.205 964.653 277.409 963.324 277.409ZM983.661 277.409C981.82 277.409 980.235 276.974 978.905 276.105C977.576 275.236 976.553 274.038 975.837 272.513C975.121 270.987 974.763 269.244 974.763 267.284C974.763 265.29 975.13 263.53 975.863 262.004C976.604 260.47 977.636 259.273 978.957 258.412C980.286 257.543 981.837 257.108 983.61 257.108C984.991 257.108 986.235 257.364 987.343 257.875C988.451 258.386 989.359 259.102 990.066 260.023C990.773 260.943 991.212 262.017 991.383 263.244H988.366C988.136 262.349 987.624 261.557 986.832 260.866C986.047 260.168 984.991 259.818 983.661 259.818C982.485 259.818 981.454 260.125 980.567 260.739C979.69 261.344 979.003 262.2 978.509 263.308C978.023 264.408 977.78 265.699 977.78 267.182C977.78 268.699 978.019 270.02 978.496 271.145C978.982 272.27 979.664 273.143 980.542 273.766C981.428 274.388 982.468 274.699 983.661 274.699C984.445 274.699 985.157 274.562 985.796 274.29C986.435 274.017 986.976 273.625 987.42 273.114C987.863 272.602 988.178 271.989 988.366 271.273H991.383C991.212 272.432 990.79 273.476 990.117 274.405C989.452 275.325 988.57 276.058 987.471 276.604C986.38 277.141 985.11 277.409 983.661 277.409ZM1003.97 257.364V259.92H993.797V257.364H1003.97ZM996.763 252.659H999.78V271.375C999.78 272.227 999.903 272.866 1000.15 273.293C1000.41 273.71 1000.73 273.991 1001.12 274.136C1001.52 274.273 1001.94 274.341 1002.39 274.341C1002.72 274.341 1002.99 274.324 1003.21 274.29C1003.42 274.247 1003.59 274.213 1003.72 274.188L1004.33 276.898C1004.13 276.974 1003.84 277.051 1003.47 277.128C1003.11 277.213 1002.64 277.256 1002.08 277.256C1001.23 277.256 1000.39 277.072 999.575 276.706C998.766 276.339 998.092 275.781 997.555 275.031C997.027 274.281 996.763 273.335 996.763 272.193V252.659Z" fill="white"/>
<g clip-path="url(#clip0_4_110)">
<path d="M286.045 356.599C285.198 358.63 284.102 360.549 282.781 362.31C279.954 359.386 276.569 357.06 272.827 355.467C269.085 353.875 265.062 353.049 260.995 353.039C256.928 353.029 252.9 353.834 249.15 355.407C245.4 356.981 242.003 359.29 239.162 362.2C236.32 365.109 234.09 368.558 232.604 372.344C231.119 376.13 230.408 380.175 230.513 384.241C230.618 388.306 231.538 392.309 233.217 396.013C234.896 399.717 237.301 403.047 240.29 405.805L241.42 406.809C245.707 410.425 250.911 412.783 256.456 413.624C262.001 414.464 267.671 413.753 272.837 411.57C278.002 409.386 282.463 405.816 285.725 401.253C288.987 396.691 290.922 391.315 291.317 385.721C292.195 378.064 289.873 368.273 286.045 356.599ZM244.684 406.056C244.361 406.453 243.928 406.745 243.439 406.895C242.951 407.046 242.429 407.048 241.939 406.902C241.449 406.756 241.013 406.467 240.687 406.074C240.361 405.68 240.159 405.199 240.106 404.69C240.053 404.181 240.153 403.669 240.391 403.217C240.63 402.764 240.997 402.393 241.447 402.15C241.897 401.906 242.408 401.802 242.917 401.849C243.426 401.896 243.91 402.094 244.307 402.416C244.828 402.856 245.158 403.482 245.228 404.16C245.298 404.839 245.103 405.518 244.684 406.056ZM285.856 396.955C278.388 406.935 262.32 403.545 252.09 404.048C252.09 404.048 250.27 404.173 248.449 404.424C248.449 404.424 249.14 404.11 250.019 403.796C257.237 401.286 260.626 400.784 265.019 398.524C273.241 394.319 281.463 385.093 283.095 375.553C279.957 384.716 270.417 392.625 261.755 395.826C255.793 398.022 245.06 400.156 245.06 400.156L244.621 399.905C237.34 396.328 237.09 380.511 250.395 375.427C256.232 373.168 261.755 374.423 268.095 372.917C274.81 371.348 282.593 366.327 285.731 359.737C289.246 370.344 293.514 386.788 285.856 396.955Z" fill="white"/>
</g>
<g clip-path="url(#clip1_4_110)">
<path d="M395.5 375.29H389.227V394.518H385.605V375.29H379.348V372.139H395.5V375.29ZM378.085 394.518H365.831V372.139H377.599V375.29H369.453V381.629H376.959V384.766H369.453V391.384H378.085V394.518ZM361.035 394.518H357.075L346.649 378.068C346.388 377.659 346.169 377.225 345.993 376.772H345.902C345.983 377.253 346.024 378.277 346.024 379.848V394.518H342.524V372.139H346.741L356.818 388.202C357.243 388.865 357.517 389.326 357.639 389.575H357.7C357.599 388.982 357.548 387.976 357.548 386.563V372.136H361.035V394.518ZM338.915 392.757C338.915 393.034 338.858 393.308 338.747 393.564C338.636 393.819 338.473 394.052 338.268 394.248C338.063 394.443 337.819 394.598 337.551 394.704C337.283 394.81 336.996 394.864 336.706 394.864C336.416 394.864 336.129 394.809 335.861 394.703C335.593 394.597 335.35 394.442 335.145 394.246C334.94 394.05 334.778 393.817 334.667 393.561C334.556 393.305 334.5 393.031 334.5 392.754C334.501 392.196 334.733 391.661 335.147 391.266C335.561 390.871 336.122 390.65 336.706 390.65C336.996 390.649 337.283 390.704 337.551 390.809C337.819 390.915 338.063 391.07 338.268 391.266C338.473 391.462 338.636 391.694 338.747 391.95C338.858 392.206 338.915 392.48 338.915 392.757Z" fill="white"/>
</g>
<g clip-path="url(#clip2_4_110)">
<path d="M498.59 366.801C498.614 366.884 498.626 366.969 498.626 367.055V380.142C498.626 380.486 498.44 380.803 498.145 380.971L487.158 387.3V399.84C487.157 400.008 487.113 400.173 487.029 400.318C486.945 400.464 486.825 400.585 486.68 400.669L463.739 413.87C463.686 413.9 463.629 413.923 463.571 413.939C463.551 413.944 463.53 413.959 463.51 413.964C463.351 414.01 463.181 414.01 463.022 413.964C462.994 413.959 462.971 413.944 462.946 413.934C462.895 413.914 462.839 413.898 462.788 413.87L439.855 400.669C439.709 400.585 439.588 400.465 439.503 400.319C439.419 400.174 439.374 400.009 439.374 399.84V360.559C439.374 360.475 439.387 360.391 439.41 360.31C439.418 360.279 439.435 360.259 439.445 360.229C439.461 360.178 439.48 360.128 439.504 360.081C439.514 360.048 439.542 360.025 439.562 359.997L439.646 359.883C439.677 359.857 439.71 359.837 439.74 359.814C439.776 359.784 439.809 359.753 439.845 359.728L451.318 353.127C451.463 353.043 451.627 352.999 451.794 352.999C451.961 352.999 452.126 353.043 452.271 353.127L463.739 359.728H463.744C463.782 359.753 463.812 359.781 463.845 359.812L463.942 359.88C463.975 359.916 463.993 359.957 464.026 359.995C464.046 360.023 464.077 360.048 464.089 360.079C464.115 360.129 464.133 360.175 464.15 360.226C464.158 360.254 464.176 360.279 464.184 360.307C464.209 360.386 464.219 360.47 464.219 360.556V385.089L473.776 379.588V367.048C473.776 366.964 473.786 366.88 473.809 366.799C473.816 366.773 473.834 366.748 473.842 366.717C473.859 366.666 473.879 366.616 473.903 366.567C473.921 366.537 473.949 366.517 473.966 366.484C473.997 366.445 474.02 366.407 474.05 366.374C474.081 366.344 474.114 366.323 474.144 366.303C474.18 366.278 474.21 366.245 474.249 366.222H474.251L485.722 359.619C485.867 359.535 486.031 359.491 486.198 359.491C486.365 359.491 486.53 359.535 486.675 359.619L498.145 366.222C498.186 366.247 498.214 366.275 498.252 366.301C498.283 366.326 498.316 366.346 498.344 366.372C498.377 366.407 498.399 366.448 498.43 366.484C498.45 366.514 498.478 366.537 498.491 366.567C498.519 366.618 498.537 366.669 498.552 366.72C498.567 366.745 498.582 366.773 498.59 366.801ZM496.709 379.591V368.705L492.698 371.013L487.153 374.205V385.091L496.709 379.591ZM485.246 399.289V388.393L479.789 391.506L464.219 400.397V411.39L485.246 399.289ZM441.278 362.211V399.289L462.305 411.39V400.397L451.32 394.183L451.315 394.175H451.31C451.274 394.15 451.246 394.122 451.208 394.096C451.18 394.071 451.147 394.05 451.119 394.028L451.117 394.022C451.084 393.992 451.063 393.959 451.038 393.921C451.013 393.893 450.985 393.865 450.967 393.829H450.962C450.941 393.794 450.929 393.751 450.911 393.71C450.896 393.669 450.875 393.641 450.865 393.601C450.856 393.553 450.849 393.504 450.845 393.456C450.84 393.42 450.83 393.387 450.83 393.352V367.714L445.289 364.519L441.278 362.211ZM451.793 355.059L442.236 360.559L451.793 366.059L461.344 360.559L451.793 355.059ZM456.764 389.384L462.31 386.192V362.211L458.294 364.524L452.749 367.714V391.694L456.764 389.384ZM486.199 361.553L476.643 367.05L486.199 372.548L495.754 367.048L486.199 361.553ZM485.244 374.205L479.7 371.013L475.685 368.708V379.593L481.23 382.786L485.246 385.094L485.244 374.205ZM463.258 398.742L477.273 390.741L484.278 386.746L474.729 381.248L463.741 387.574L453.725 393.344L463.258 398.742Z" fill="white"/>
</g>
<path d="M573.005 353C571.563 353 570.181 353.573 569.162 354.592C568.142 355.611 567.57 356.994 567.57 358.435C567.57 359.877 568.142 361.259 569.162 362.279C570.181 363.298 571.563 363.871 573.005 363.871C574.447 363.871 575.829 363.298 576.848 362.279C577.868 361.259 578.44 359.877 578.44 358.435C578.44 356.994 577.868 355.611 576.848 354.592C575.829 353.573 574.447 353 573.005 353ZM594.711 365.533C593.269 365.533 591.887 366.106 590.867 367.125C589.848 368.144 589.276 369.527 589.276 370.968C589.276 372.41 589.848 373.792 590.867 374.812C591.887 375.831 593.269 376.404 594.711 376.404C596.152 376.404 597.535 375.831 598.554 374.812C599.574 373.792 600.146 372.41 600.146 370.968C600.146 369.527 599.574 368.144 598.554 367.125C597.535 366.106 596.152 365.533 594.711 365.533ZM594.711 390.599C593.269 390.599 591.887 391.172 590.867 392.191C589.848 393.21 589.276 394.593 589.276 396.034C589.276 397.476 589.848 398.858 590.867 399.878C591.887 400.897 593.269 401.47 594.711 401.47C596.152 401.47 597.535 400.897 598.554 399.878C599.574 398.858 600.146 397.476 600.146 396.034C600.146 394.593 599.574 393.21 598.554 392.191C597.535 391.172 596.152 390.599 594.711 390.599ZM573.005 403.132C571.564 403.132 570.182 403.704 569.163 404.723C568.143 405.743 567.571 407.125 567.571 408.566C567.571 410.007 568.143 411.389 569.163 412.408C570.182 413.427 571.564 414 573.005 414C574.446 414 575.828 413.427 576.848 412.408C577.867 411.389 578.439 410.007 578.439 408.566C578.439 407.125 577.867 405.743 576.848 404.723C575.828 403.704 574.446 403.132 573.005 403.132ZM551.294 390.601C550.581 390.601 549.874 390.742 549.215 391.015C548.555 391.288 547.956 391.688 547.452 392.193C546.947 392.698 546.547 393.297 546.274 393.956C546.001 394.615 545.86 395.322 545.86 396.035C545.86 396.749 546.001 397.456 546.274 398.115C546.547 398.774 546.947 399.373 547.452 399.878C547.956 400.383 548.555 400.783 549.215 401.056C549.874 401.329 550.581 401.47 551.294 401.47C552.736 401.47 554.118 400.897 555.137 399.878C556.157 398.858 556.729 397.476 556.729 396.034C556.729 394.593 556.157 393.21 555.137 392.191C554.118 391.172 552.736 390.601 551.294 390.601ZM551.294 365.533C549.853 365.533 548.47 366.106 547.451 367.125C546.431 368.144 545.859 369.527 545.859 370.968C545.859 372.41 546.431 373.792 547.451 374.812C548.47 375.831 549.853 376.404 551.294 376.404C552.736 376.404 554.118 375.831 555.137 374.812C556.157 373.792 556.729 372.41 556.729 370.968C556.729 369.527 556.157 368.144 555.137 367.125C554.118 366.106 552.736 365.533 551.294 365.533ZM573.005 356.947L550.005 370.225V396.78L573.005 410.058L595.999 396.78V370.225L573.005 356.947ZM573.005 361.016L592.474 394.744H553.531L573.005 361.016ZM569.48 361.959L552.59 391.219V371.714L569.48 361.959ZM576.53 361.959L593.422 371.714V391.219L576.53 361.959ZM556.111 397.327H589.897L573.005 407.076L556.111 397.327Z" fill="white"/>
<g clip-path="url(#clip3_4_110)">
<path d="M693.94 408.861C689.093 412.106 683.265 414 677 414C660.167 414 646.5 400.333 646.5 383.5C646.5 366.667 660.167 353 677 353C693.833 353 707.5 366.667 707.5 383.5C707.5 392.607 703.499 400.786 697.163 406.378L669.932 371.3H664.8V395.69H668.905V376.513L693.94 408.861ZM685.471 387.173L689.538 392.411V371.3H685.471V387.173Z" fill="white"/>
</g>
<g clip-path="url(#clip4_4_110)">
<path d="M792.778 394.948C794.989 394.757 796.7 392.813 796.591 390.49C796.471 388.166 794.567 386.301 792.247 386.301H792.092C790.94 386.342 789.852 386.839 789.067 387.682C788.281 388.525 787.863 389.645 787.903 390.797C787.979 392.015 788.478 393.006 789.159 393.728C786.495 398.908 782.497 402.715 776.438 405.915C772.363 408.045 768.06 408.848 763.872 408.279C760.369 407.783 757.629 406.22 755.952 403.706C753.441 399.896 753.212 395.786 755.304 391.674C756.829 388.7 759.114 386.532 760.639 385.465C760.178 384.188 759.821 382.877 759.571 381.543C748.294 389.62 749.443 400.661 752.869 405.879C755.421 409.687 760.639 412.122 766.35 412.122C767.875 412.122 769.476 412.01 771.034 411.629C780.939 409.725 788.439 403.785 792.742 395.026L792.778 394.948ZM806.371 385.427C800.474 378.493 791.787 374.685 781.884 374.685H780.588C779.945 373.277 778.461 372.401 776.781 372.401H776.666C774.27 372.401 772.402 374.459 772.48 376.856C772.557 379.138 774.498 381.045 776.821 381.045H777.01C777.834 381.013 778.631 380.745 779.307 380.272C779.982 379.799 780.507 379.142 780.82 378.379H782.23C788.099 378.379 793.655 380.092 798.72 383.442C802.602 385.996 805.385 389.346 806.948 393.346C808.315 396.62 808.242 399.82 806.833 402.489C804.66 406.675 801.003 408.886 796.169 408.886C793.121 408.886 790.153 407.933 788.628 407.249C787.713 408.007 786.188 409.265 785.084 410.027C788.434 411.547 791.825 412.424 795.099 412.424C802.525 412.424 808.046 408.238 810.143 404.199C812.425 399.629 812.237 391.938 806.406 385.35L806.371 385.427ZM766.995 396.315C767.072 398.6 769.011 400.504 771.337 400.504H771.489C772.061 400.491 772.625 400.363 773.148 400.129C773.67 399.895 774.14 399.559 774.531 399.14C774.921 398.721 775.224 398.228 775.421 397.691C775.618 397.153 775.705 396.582 775.678 396.01C775.678 393.723 773.698 391.824 771.375 391.824H771.222C771.07 391.824 770.841 391.824 770.648 391.898C767.488 386.565 766.154 380.849 766.652 374.685C766.957 370.039 768.482 366.001 771.22 362.651C773.507 359.794 777.81 358.381 780.743 358.31C788.968 358.154 792.397 368.402 792.661 372.477L796.469 373.621C795.592 361.126 787.827 354.576 780.4 354.576C773.426 354.576 766.995 359.641 764.403 367.068C760.862 376.968 763.185 386.492 767.529 394.109C767.148 394.605 766.919 395.479 766.995 396.315Z" fill="white"/>
</g>
<path d="M898.199 377.286C894.986 363.103 887.392 358.442 886.576 356.66C885.864 355.659 885.229 354.235 884.708 353C884.616 354.258 884.568 354.741 883.378 356.009C881.541 357.448 872.098 365.368 871.331 381.477C870.614 396.503 882.184 405.457 883.755 406.599L883.932 406.726C884.26 409.145 884.539 411.57 884.771 414H885.994C886.284 411.377 886.716 408.774 887.29 406.197C888.35 405.445 888.825 405.02 889.45 404.436C892.411 401.697 894.765 398.366 896.358 394.661C897.951 390.955 898.749 386.956 898.7 382.923C898.725 380.854 898.438 378.699 898.199 377.286ZM884.637 398.115C884.637 398.115 884.637 377.042 885.335 377.044C885.877 377.044 886.581 404.227 886.581 404.227C885.613 404.113 884.637 399.754 884.637 398.115Z" fill="white"/>
<g clip-path="url(#clip5_4_110)">
<path d="M1018.38 390.42C1018.35 390.314 1018.3 390.212 1018.24 390.118C1017.88 389.449 1017.03 389.249 1015.68 389.528C1011.47 390.395 1009.85 389.861 1009.26 389.479C1012.67 384.273 1015.47 377.986 1016.99 372.12C1017.68 369.45 1019.02 363.164 1017.3 360.094C1017.19 359.884 1017.06 359.684 1016.91 359.497C1013.64 355.309 1008.83 353.063 1003 353.001C999.205 352.961 995.963 353.881 995.084 354.22C994.649 354.139 994.212 354.069 993.773 354.012C992.673 353.813 991.558 353.704 990.44 353.688C987.435 353.641 984.839 354.359 982.688 355.824C980.509 355.008 970.517 351.643 964.333 356.024C960.879 358.471 959.284 362.845 959.593 369.023C959.697 371.103 960.882 377.497 962.751 383.622C963.92 387.451 965.137 390.489 966.394 392.726C967.8 395.253 969.256 396.776 970.751 397.274C971.889 397.653 973.63 397.641 975.474 395.424C977.51 392.975 979.516 390.784 980.417 389.815C981.522 390.414 982.72 390.736 983.949 390.774C983.95 390.777 983.95 390.781 983.95 390.784C983.736 391.039 983.527 391.298 983.322 391.56C982.461 392.654 982.282 392.881 979.509 393.452C978.721 393.615 976.626 394.047 976.595 395.515C976.589 395.826 976.679 396.102 976.829 396.345C977.406 397.421 979.171 397.895 979.409 397.954C982.801 398.802 985.774 398.188 987.978 396.229C987.935 401.9 988.175 407.457 988.856 409.16C989.418 410.565 990.792 414.001 995.132 414C995.768 414 996.469 413.926 997.24 413.761C1001.77 412.79 1003.74 410.788 1004.5 406.375C1004.88 404.162 1005.52 399.067 1005.87 395.951C1005.91 395.772 1005.96 395.644 1006.01 395.605C1006.01 395.604 1006.19 395.485 1007.1 395.683C1007.13 395.691 1007.17 395.697 1007.21 395.7L1007.85 395.757L1007.89 395.759C1010.04 395.857 1012.75 395.397 1014.33 394.665C1015.96 393.905 1018.92 392.041 1018.38 390.42ZM964.526 383.186C962.637 376.995 961.532 370.77 961.445 369.024C961.169 363.505 962.505 359.663 965.416 357.605C970.084 354.305 977.717 356.231 980.94 357.275C980.932 357.283 980.924 357.29 980.915 357.299C975.772 362.494 975.894 371.369 975.906 371.912C975.906 372.121 975.923 372.418 975.948 372.825C976.036 374.318 976.201 377.096 975.761 380.243C975.352 383.167 976.253 386.029 978.233 388.095C978.438 388.308 978.652 388.509 978.873 388.698C977.992 389.642 976.076 391.729 974.038 394.182C972.595 395.917 971.599 395.584 971.271 395.475C970.275 395.143 969.205 393.983 968.124 392.114C966.905 389.982 965.675 386.95 964.526 383.186ZM979.795 396.116C979.36 396.007 978.963 395.828 978.696 395.665C978.922 395.565 979.299 395.436 979.924 395.307C983.186 394.636 983.69 394.162 984.79 392.765C985.042 392.445 985.328 392.082 985.724 391.64C985.809 391.545 985.873 391.432 985.911 391.31C986.345 390.926 986.603 391.031 987.021 391.204C987.418 391.368 987.804 391.865 987.96 392.412C988.034 392.67 988.118 393.161 987.846 393.542C985.547 396.759 982.199 396.717 979.795 396.116ZM985.117 385.98L984.983 386.338C984.645 387.244 984.331 388.087 984.136 388.887C982.44 388.882 980.789 388.157 979.534 386.848C977.938 385.183 977.214 382.867 977.545 380.493C978.01 377.168 977.839 374.274 977.746 372.719C977.734 372.501 977.722 372.31 977.715 372.16C978.467 371.494 981.949 369.628 984.433 370.197C985.566 370.456 986.257 371.228 986.544 372.555C988.029 379.427 986.74 382.292 985.704 384.593C985.491 385.068 985.289 385.516 985.117 385.98ZM1003.83 397.601C1003.79 398.051 1003.74 398.557 1003.68 399.116L1003.3 400.23C1003.28 400.318 1003.26 400.411 1003.26 400.504C1003.24 401.71 1003.12 402.153 1002.97 402.713C1002.81 403.296 1002.62 403.956 1002.51 405.401C1002.23 408.996 1000.28 411.061 996.367 411.899C992.515 412.725 991.831 410.636 991.229 408.794C991.168 408.6 991.103 408.408 991.034 408.218C990.486 406.729 990.548 404.629 990.634 401.723C990.676 400.297 990.571 396.891 989.795 394.998C989.806 394.253 989.821 393.496 989.843 392.731C989.845 392.634 989.832 392.538 989.804 392.445C989.779 392.266 989.742 392.09 989.692 391.916C989.381 390.828 988.622 389.917 987.711 389.54C987.349 389.39 986.684 389.115 985.886 389.319C986.057 388.617 986.352 387.825 986.672 386.968L986.806 386.607C986.957 386.2 987.147 385.779 987.347 385.333C988.431 382.925 989.916 379.626 988.305 372.174C987.701 369.383 985.686 368.02 982.631 368.337C980.799 368.527 979.123 369.266 978.287 369.689C978.12 369.774 977.954 369.863 977.79 369.954C978.023 367.142 978.905 361.886 982.201 358.561C982.446 358.315 982.704 358.081 982.972 357.86C983.106 357.834 983.231 357.778 983.34 357.696C985.252 356.246 987.647 355.534 990.462 355.58C991.502 355.597 992.499 355.666 993.446 355.786C998.374 356.687 1001.69 359.463 1003.7 361.842C1005.77 364.288 1006.89 366.751 1007.34 368.08C1003.98 367.738 1001.69 368.403 1000.53 370.06C998.008 373.667 1001.91 380.666 1003.79 384.03C1004.13 384.647 1004.43 385.18 1004.52 385.406C1005.13 386.887 1005.92 387.875 1006.5 388.596C1006.68 388.817 1006.85 389.032 1006.98 389.219C1005.96 389.513 1004.13 390.191 1004.3 393.583C1004.27 393.98 1004.19 394.719 1004.09 395.654C1003.97 396.182 1003.91 396.824 1003.83 397.601ZM1006.1 393.481C1005.99 391.367 1006.78 391.147 1007.61 390.913C1007.73 390.881 1007.84 390.847 1007.96 390.81C1008.06 390.905 1008.18 390.992 1008.3 391.071C1009.75 392.028 1012.32 392.142 1015.94 391.413C1015.43 391.863 1014.62 392.428 1013.52 392.941C1012.47 393.424 1010.73 393.787 1009.08 393.865C1007.25 393.95 1006.32 393.66 1006.1 393.481ZM1007.54 369.917C1007.53 370.808 1007.41 371.618 1007.28 372.463C1007.14 373.372 1006.99 374.312 1006.95 375.452C1006.92 376.563 1007.06 377.717 1007.19 378.833C1007.46 381.087 1007.74 383.409 1006.66 385.699C1006.49 385.382 1006.33 385.055 1006.19 384.719C1006.05 384.395 1005.76 383.874 1005.36 383.153C1003.8 380.347 1000.13 373.775 1002.01 371.094C1002.97 369.714 1005.42 369.655 1007.54 369.917ZM1008.12 387.743C1008.05 387.652 1007.98 387.561 1007.91 387.47L1007.82 387.357C1009.66 384.309 1009.3 381.293 1008.98 378.618C1008.85 377.52 1008.72 376.484 1008.76 375.511C1008.79 374.478 1008.93 373.593 1009.06 372.737C1009.22 371.683 1009.38 370.591 1009.34 369.305C1009.37 369.17 1009.39 369.01 1009.37 368.821C1009.25 367.587 1007.84 363.896 1004.97 360.553C1003.43 358.756 1001.19 356.748 998.139 355.37C999.474 355.099 1001.27 354.852 1003.28 354.897C1008.5 355.013 1012.62 356.965 1015.55 360.698C1015.61 360.779 1015.66 360.864 1015.72 360.953C1017.55 364.398 1015.01 376.902 1008.12 387.743ZM985.715 372.198C985.652 372.654 984.93 373.272 984.137 373.272C984.068 373.272 983.999 373.267 983.931 373.258C983.455 373.192 982.974 372.892 982.645 372.455C982.529 372.302 982.34 372.003 982.377 371.733C982.391 371.631 982.444 371.482 982.612 371.354C982.913 371.127 983.506 371.043 984.162 371.134C984.966 371.246 985.795 371.627 985.715 372.198ZM1005.87 371.152C1005.9 371.354 1005.75 371.663 1005.48 371.941C1005.31 372.123 1004.94 372.439 1004.45 372.508C1004.38 372.517 1004.32 372.521 1004.26 372.521C1003.51 372.521 1002.88 371.926 1002.83 371.577C1002.77 371.128 1003.5 370.787 1004.26 370.682C1005.01 370.577 1005.81 370.704 1005.87 371.152Z" fill="white"/>
</g>
<defs>
<linearGradient id="paint0_linear_4_110" x1="625" y1="0" x2="625" y2="514" gradientUnits="userSpaceOnUse">
<stop stop-color="#182539"/>
<stop offset="1" stop-color="#2F88ED"/>
</linearGradient>
<linearGradient id="paint1_linear_4_110" x1="100" y1="157.5" x2="1150" y2="157.5" gradientUnits="userSpaceOnUse">
<stop stop-color="white"/>
<stop offset="1" stop-color="#2F88ED"/>
</linearGradient>
<clipPath id="clip0_4_110">
<rect width="61" height="61" fill="white" transform="translate(230.5 353)"/>
</clipPath>
<clipPath id="clip1_4_110">
<rect width="61" height="61" fill="white" transform="translate(334.5 353)"/>
</clipPath>
<clipPath id="clip2_4_110">
<rect width="61" height="61" fill="white" transform="translate(438.5 353)"/>
</clipPath>
<clipPath id="clip3_4_110">
<rect width="61" height="61" fill="white" transform="translate(646.5 353)"/>
</clipPath>
<clipPath id="clip4_4_110">
<rect width="61" height="61" fill="white" transform="translate(750.5 353)"/>
</clipPath>
<clipPath id="clip5_4_110">
<rect width="61" height="61" fill="white" transform="translate(958.5 353)"/>
</clipPath>
</defs>
</svg>
