<svg width="1920" height="1080" viewBox="0 0 1920 1080" fill="none" xmlns="http://www.w3.org/2000/svg">
<g filter="url(#filter0_dd_1_42)">
<rect width="1920" height="1080" fill="url(#paint0_linear_1_42)"/>
<rect x="335" y="283" width="1250" height="514" rx="20" fill="black" fill-opacity="0.01"/>
<path d="M453.102 475H437.284L461.386 405.182H480.409L504.477 475H488.659L471.17 421.136H470.625L453.102 475ZM452.114 447.557H489.477V459.08H452.114V447.557ZM510.961 475V405.182H525.722V462.83H555.654V475H510.961ZM563.509 475V405.182H610.555V417.352H578.271V433.989H608.134V446.159H578.271V462.83H610.691V475H563.509ZM648.325 405.182H662.916V453.864C662.916 458.364 661.905 462.273 659.882 465.591C657.882 468.909 655.098 471.466 651.53 473.261C647.962 475.057 643.814 475.955 639.087 475.955C634.882 475.955 631.064 475.216 627.632 473.739C624.223 472.239 621.518 469.966 619.518 466.92C617.518 463.852 616.53 460 616.553 455.364H631.246C631.291 457.205 631.666 458.784 632.371 460.102C633.098 461.398 634.087 462.398 635.337 463.102C636.609 463.784 638.109 464.125 639.837 464.125C641.655 464.125 643.189 463.739 644.439 462.966C645.712 462.17 646.678 461.011 647.337 459.489C647.996 457.966 648.325 456.091 648.325 453.864V405.182ZM685.235 475H669.417L693.519 405.182H712.542L736.61 475H720.792L703.303 421.136H702.758L685.235 475ZM684.246 447.557H721.61V459.08H684.246V447.557ZM801.491 405.182V475H788.741L758.366 431.057H757.855V475H743.093V405.182H756.048L786.184 449.091H786.798V405.182H801.491ZM836.517 475H811.767V405.182H836.721C843.744 405.182 849.79 406.58 854.858 409.375C859.926 412.148 863.824 416.136 866.551 421.341C869.301 426.545 870.676 432.773 870.676 440.023C870.676 447.295 869.301 453.545 866.551 458.773C863.824 464 859.903 468.011 854.79 470.807C849.699 473.602 843.608 475 836.517 475ZM826.528 462.352H835.903C840.267 462.352 843.937 461.58 846.915 460.034C849.915 458.466 852.165 456.045 853.665 452.773C855.187 449.477 855.949 445.227 855.949 440.023C855.949 434.864 855.187 430.648 853.665 427.375C852.165 424.102 849.926 421.693 846.949 420.148C843.971 418.602 840.301 417.83 835.937 417.83H826.528V462.352ZM879.691 475V405.182H907.236C912.509 405.182 917.009 406.125 920.736 408.011C924.486 409.875 927.338 412.523 929.293 415.955C931.27 419.364 932.259 423.375 932.259 427.989C932.259 432.625 931.259 436.614 929.259 439.955C927.259 443.273 924.361 445.818 920.566 447.591C916.793 449.364 912.225 450.25 906.861 450.25H888.418V438.386H904.475C907.293 438.386 909.634 438 911.497 437.227C913.361 436.455 914.747 435.295 915.657 433.75C916.588 432.205 917.054 430.284 917.054 427.989C917.054 425.67 916.588 423.716 915.657 422.125C914.747 420.534 913.35 419.33 911.463 418.511C909.6 417.67 907.247 417.25 904.407 417.25H894.452V475H879.691ZM917.395 443.227L934.747 475H918.452L901.475 443.227H917.395ZM1004.93 440.091C1004.93 447.705 1003.49 454.182 1000.6 459.523C997.737 464.864 993.828 468.943 988.873 471.761C983.941 474.557 978.396 475.955 972.237 475.955C966.032 475.955 960.464 474.545 955.532 471.727C950.6 468.909 946.703 464.83 943.839 459.489C940.975 454.148 939.543 447.682 939.543 440.091C939.543 432.477 940.975 426 943.839 420.659C946.703 415.318 950.6 411.25 955.532 408.455C960.464 405.636 966.032 404.227 972.237 404.227C978.396 404.227 983.941 405.636 988.873 408.455C993.828 411.25 997.737 415.318 1000.6 420.659C1003.49 426 1004.93 432.477 1004.93 440.091ZM989.964 440.091C989.964 435.159 989.225 431 987.748 427.614C986.293 424.227 984.237 421.659 981.578 419.909C978.918 418.159 975.805 417.284 972.237 417.284C968.668 417.284 965.555 418.159 962.896 419.909C960.237 421.659 958.168 424.227 956.691 427.614C955.237 431 954.509 435.159 954.509 440.091C954.509 445.023 955.237 449.182 956.691 452.568C958.168 455.955 960.237 458.523 962.896 460.273C965.555 462.023 968.668 462.898 972.237 462.898C975.805 462.898 978.918 462.023 981.578 460.273C984.237 458.523 986.293 455.955 987.748 452.568C989.225 449.182 989.964 445.023 989.964 440.091ZM1095.85 429.625H1080.91C1080.64 427.693 1080.08 425.977 1079.24 424.477C1078.4 422.955 1077.32 421.659 1076 420.591C1074.69 419.523 1073.16 418.705 1071.44 418.136C1069.73 417.568 1067.88 417.284 1065.88 417.284C1062.27 417.284 1059.12 418.182 1056.44 419.977C1053.75 421.75 1051.67 424.341 1050.2 427.75C1048.72 431.136 1047.98 435.25 1047.98 440.091C1047.98 445.068 1048.72 449.25 1050.2 452.636C1051.7 456.023 1053.79 458.58 1056.47 460.307C1059.15 462.034 1062.25 462.898 1065.78 462.898C1067.75 462.898 1069.58 462.636 1071.27 462.114C1072.97 461.591 1074.48 460.83 1075.8 459.83C1077.12 458.807 1078.21 457.568 1079.07 456.114C1079.96 454.659 1080.57 453 1080.91 451.136L1095.85 451.205C1095.46 454.409 1094.49 457.5 1092.95 460.477C1091.42 463.432 1089.37 466.08 1086.78 468.42C1084.21 470.739 1081.14 472.58 1077.57 473.943C1074.03 475.284 1070.02 475.955 1065.54 475.955C1059.31 475.955 1053.74 474.545 1048.83 471.727C1043.95 468.909 1040.08 464.83 1037.24 459.489C1034.42 454.148 1033.02 447.682 1033.02 440.091C1033.02 432.477 1034.45 426 1037.31 420.659C1040.17 415.318 1044.06 411.25 1048.97 408.455C1053.88 405.636 1059.4 404.227 1065.54 404.227C1069.58 404.227 1073.33 404.795 1076.79 405.932C1080.27 407.068 1083.35 408.727 1086.03 410.909C1088.71 413.068 1090.89 415.716 1092.57 418.852C1094.28 421.989 1095.37 425.58 1095.85 429.625ZM1115.23 475H1099.41L1123.52 405.182H1142.54L1166.61 475H1150.79L1133.3 421.136H1132.76L1115.23 475ZM1114.24 447.557H1151.61V459.08H1114.24V447.557ZM1173.09 475V405.182H1200.64C1205.91 405.182 1210.41 406.125 1214.14 408.011C1217.89 409.875 1220.74 412.523 1222.69 415.955C1224.67 419.364 1225.66 423.375 1225.66 427.989C1225.66 432.625 1224.66 436.614 1222.66 439.955C1220.66 443.273 1217.76 445.818 1213.97 447.591C1210.19 449.364 1205.62 450.25 1200.26 450.25H1181.82V438.386H1197.87C1200.69 438.386 1203.03 438 1204.9 437.227C1206.76 436.455 1208.15 435.295 1209.06 433.75C1209.99 432.205 1210.45 430.284 1210.45 427.989C1210.45 425.67 1209.99 423.716 1209.06 422.125C1208.15 420.534 1206.75 419.33 1204.86 418.511C1203 417.67 1200.65 417.25 1197.81 417.25H1187.85V475H1173.09ZM1210.8 443.227L1228.15 475H1211.85L1194.87 443.227H1210.8ZM1234.17 475V405.182H1261.72C1266.99 405.182 1271.49 406.125 1275.22 408.011C1278.97 409.875 1281.82 412.523 1283.77 415.955C1285.75 419.364 1286.74 423.375 1286.74 427.989C1286.74 432.625 1285.74 436.614 1283.74 439.955C1281.74 443.273 1278.84 445.818 1275.05 447.591C1271.27 449.364 1266.7 450.25 1261.34 450.25H1242.9V438.386H1258.95C1261.77 438.386 1264.11 438 1265.98 437.227C1267.84 436.455 1269.23 435.295 1270.14 433.75C1271.07 432.205 1271.53 430.284 1271.53 427.989C1271.53 425.67 1271.07 423.716 1270.14 422.125C1269.23 420.534 1267.83 419.33 1265.94 418.511C1264.08 417.67 1261.73 417.25 1258.89 417.25H1248.93V475H1234.17ZM1271.88 443.227L1289.23 475H1272.93L1255.95 443.227H1271.88ZM1310.01 405.182V475H1295.25V405.182H1310.01ZM1384.4 440.091C1384.4 447.705 1382.95 454.182 1380.07 459.523C1377.2 464.864 1373.29 468.943 1368.34 471.761C1363.41 474.557 1357.86 475.955 1351.7 475.955C1345.5 475.955 1339.93 474.545 1335 471.727C1330.07 468.909 1326.17 464.83 1323.31 459.489C1320.44 454.148 1319.01 447.682 1319.01 440.091C1319.01 432.477 1320.44 426 1323.31 420.659C1326.17 415.318 1330.07 411.25 1335 408.455C1339.93 405.636 1345.5 404.227 1351.7 404.227C1357.86 404.227 1363.41 405.636 1368.34 408.455C1373.29 411.25 1377.2 415.318 1380.07 420.659C1382.95 426 1384.4 432.477 1384.4 440.091ZM1369.43 440.091C1369.43 435.159 1368.69 431 1367.21 427.614C1365.76 424.227 1363.7 421.659 1361.04 419.909C1358.38 418.159 1355.27 417.284 1351.7 417.284C1348.13 417.284 1345.02 418.159 1342.36 419.909C1339.7 421.659 1337.63 424.227 1336.16 427.614C1334.7 431 1333.98 435.159 1333.98 440.091C1333.98 445.023 1334.7 449.182 1336.16 452.568C1337.63 455.955 1339.7 458.523 1342.36 460.273C1345.02 462.023 1348.13 462.898 1351.7 462.898C1355.27 462.898 1358.38 462.023 1361.04 460.273C1363.7 458.523 1365.76 455.955 1367.21 452.568C1368.69 449.182 1369.43 445.023 1369.43 440.091ZM1451.81 405.182V475H1439.06L1408.68 431.057H1408.17V475H1393.41V405.182H1406.37L1436.5 449.091H1437.12V405.182H1451.81Z" fill="url(#paint1_linear_1_42)"/>
<path d="M582.421 560V533.818H598.119V536.631H585.591V545.477H596.943V548.29H585.591V560H582.421ZM613.925 551.972V540.364H616.942V560H613.925V556.676H613.72C613.26 557.673 612.544 558.521 611.573 559.22C610.601 559.911 609.374 560.256 607.891 560.256C606.664 560.256 605.573 559.987 604.618 559.45C603.664 558.905 602.914 558.087 602.368 556.996C601.823 555.896 601.55 554.511 601.55 552.841V540.364H604.567V552.636C604.567 554.068 604.968 555.21 605.769 556.062C606.578 556.915 607.61 557.341 608.862 557.341C609.612 557.341 610.375 557.149 611.151 556.766C611.935 556.382 612.591 555.794 613.119 555.001C613.656 554.209 613.925 553.199 613.925 551.972ZM625.125 533.818V560H622.108V533.818H625.125ZM633.308 533.818V560H630.291V533.818H633.308ZM652.383 544.761L649.673 545.528C649.502 545.077 649.251 544.638 648.918 544.212C648.595 543.777 648.151 543.419 647.589 543.138C647.026 542.857 646.306 542.716 645.428 542.716C644.227 542.716 643.225 542.993 642.424 543.547C641.631 544.092 641.235 544.787 641.235 545.631C641.235 546.381 641.508 546.973 642.053 547.408C642.599 547.842 643.451 548.205 644.61 548.494L647.525 549.21C649.281 549.636 650.589 550.288 651.45 551.166C652.31 552.036 652.741 553.156 652.741 554.528C652.741 555.653 652.417 556.659 651.769 557.545C651.13 558.432 650.235 559.131 649.085 559.642C647.934 560.153 646.596 560.409 645.07 560.409C643.068 560.409 641.41 559.974 640.097 559.105C638.785 558.236 637.954 556.966 637.604 555.295L640.468 554.58C640.741 555.636 641.256 556.429 642.015 556.957C642.782 557.486 643.783 557.75 645.019 557.75C646.426 557.75 647.542 557.452 648.369 556.855C649.204 556.25 649.622 555.526 649.622 554.682C649.622 554 649.383 553.429 648.906 552.969C648.428 552.5 647.695 552.151 646.707 551.92L643.434 551.153C641.636 550.727 640.315 550.067 639.471 549.172C638.636 548.268 638.218 547.139 638.218 545.784C638.218 544.676 638.529 543.696 639.151 542.844C639.782 541.991 640.639 541.322 641.721 540.837C642.812 540.351 644.048 540.108 645.428 540.108C647.372 540.108 648.897 540.534 650.005 541.386C651.122 542.239 651.914 543.364 652.383 544.761ZM665.462 540.364V542.92H655.286V540.364H665.462ZM658.252 535.659H661.269V554.375C661.269 555.227 661.393 555.866 661.64 556.293C661.895 556.71 662.219 556.991 662.611 557.136C663.012 557.273 663.434 557.341 663.877 557.341C664.209 557.341 664.482 557.324 664.695 557.29C664.908 557.247 665.079 557.213 665.206 557.188L665.82 559.898C665.616 559.974 665.33 560.051 664.964 560.128C664.597 560.213 664.133 560.256 663.57 560.256C662.718 560.256 661.883 560.072 661.064 559.706C660.255 559.339 659.581 558.781 659.045 558.031C658.516 557.281 658.252 556.335 658.252 555.193V535.659ZM675.419 560.46C674.175 560.46 673.045 560.226 672.031 559.757C671.017 559.28 670.212 558.594 669.615 557.699C669.018 556.795 668.72 555.705 668.72 554.426C668.72 553.301 668.942 552.389 669.385 551.69C669.828 550.983 670.42 550.429 671.162 550.028C671.903 549.628 672.721 549.33 673.616 549.134C674.52 548.929 675.427 548.767 676.339 548.648C677.533 548.494 678.5 548.379 679.241 548.303C679.991 548.217 680.537 548.077 680.878 547.881C681.227 547.685 681.402 547.344 681.402 546.858V546.756C681.402 545.494 681.057 544.514 680.366 543.815C679.685 543.116 678.649 542.767 677.26 542.767C675.819 542.767 674.69 543.082 673.872 543.713C673.054 544.344 672.479 545.017 672.146 545.733L669.283 544.71C669.794 543.517 670.476 542.588 671.328 541.923C672.189 541.25 673.126 540.781 674.141 540.517C675.163 540.244 676.169 540.108 677.158 540.108C677.788 540.108 678.513 540.185 679.331 540.338C680.158 540.483 680.954 540.786 681.721 541.246C682.497 541.706 683.141 542.401 683.652 543.33C684.163 544.259 684.419 545.503 684.419 547.062V560H681.402V557.341H681.248C681.044 557.767 680.703 558.223 680.226 558.709C679.748 559.195 679.114 559.608 678.321 559.949C677.528 560.29 676.561 560.46 675.419 560.46ZM675.879 557.75C677.072 557.75 678.078 557.516 678.896 557.047C679.723 556.578 680.345 555.973 680.763 555.232C681.189 554.49 681.402 553.71 681.402 552.892V550.131C681.274 550.284 680.993 550.425 680.558 550.553C680.132 550.672 679.638 550.778 679.075 550.872C678.521 550.957 677.98 551.034 677.452 551.102C676.932 551.162 676.51 551.213 676.186 551.256C675.402 551.358 674.669 551.524 673.987 551.754C673.314 551.976 672.768 552.312 672.351 552.764C671.942 553.207 671.737 553.812 671.737 554.58C671.737 555.628 672.125 556.42 672.9 556.957C673.685 557.486 674.677 557.75 675.879 557.75ZM697.543 560.409C695.702 560.409 694.117 559.974 692.787 559.105C691.458 558.236 690.435 557.038 689.719 555.513C689.003 553.987 688.645 552.244 688.645 550.284C688.645 548.29 689.012 546.53 689.745 545.004C690.486 543.47 691.517 542.273 692.838 541.412C694.168 540.543 695.719 540.108 697.492 540.108C698.873 540.108 700.117 540.364 701.225 540.875C702.333 541.386 703.24 542.102 703.948 543.023C704.655 543.943 705.094 545.017 705.265 546.244H702.248C702.017 545.349 701.506 544.557 700.713 543.866C699.929 543.168 698.873 542.818 697.543 542.818C696.367 542.818 695.336 543.125 694.449 543.739C693.571 544.344 692.885 545.2 692.391 546.308C691.905 547.408 691.662 548.699 691.662 550.182C691.662 551.699 691.901 553.02 692.378 554.145C692.864 555.27 693.546 556.143 694.424 556.766C695.31 557.388 696.35 557.699 697.543 557.699C698.327 557.699 699.039 557.562 699.678 557.29C700.317 557.017 700.858 556.625 701.301 556.114C701.745 555.602 702.06 554.989 702.248 554.273H705.265C705.094 555.432 704.672 556.476 703.999 557.405C703.334 558.325 702.452 559.058 701.353 559.604C700.262 560.141 698.992 560.409 697.543 560.409ZM712.128 552.841L712.076 549.108H712.69L721.281 540.364H725.014L715.86 549.619H715.605L712.128 552.841ZM709.315 560V533.818H712.332V560H709.315ZM721.792 560L714.122 550.284L716.27 548.188L725.628 560H721.792ZM746.791 560H738.711V533.818H747.149C749.688 533.818 751.862 534.342 753.669 535.391C755.475 536.43 756.86 537.926 757.823 539.878C758.786 541.821 759.268 544.148 759.268 546.858C759.268 549.585 758.782 551.933 757.811 553.902C756.839 555.862 755.424 557.371 753.566 558.428C751.708 559.476 749.45 560 746.791 560ZM741.882 557.188H746.586C748.751 557.188 750.545 556.77 751.968 555.935C753.392 555.099 754.453 553.911 755.152 552.368C755.85 550.825 756.2 548.989 756.2 546.858C756.2 544.744 755.855 542.925 755.164 541.399C754.474 539.865 753.443 538.689 752.071 537.871C750.698 537.044 748.99 536.631 746.944 536.631H741.882V557.188ZM772.05 560.409C770.158 560.409 768.526 559.991 767.154 559.156C765.79 558.312 764.738 557.136 763.996 555.628C763.263 554.111 762.897 552.347 762.897 550.335C762.897 548.324 763.263 546.551 763.996 545.017C764.738 543.474 765.769 542.273 767.09 541.412C768.419 540.543 769.97 540.108 771.743 540.108C772.766 540.108 773.776 540.278 774.773 540.619C775.77 540.96 776.678 541.514 777.496 542.281C778.314 543.04 778.966 544.045 779.452 545.298C779.938 546.551 780.181 548.094 780.181 549.926V551.205H765.044V548.597H777.113C777.113 547.489 776.891 546.5 776.448 545.631C776.013 544.761 775.391 544.075 774.581 543.572C773.78 543.07 772.834 542.818 771.743 542.818C770.542 542.818 769.502 543.116 768.624 543.713C767.755 544.301 767.086 545.068 766.617 546.014C766.148 546.96 765.914 547.974 765.914 549.057V550.795C765.914 552.278 766.169 553.536 766.681 554.567C767.201 555.589 767.921 556.369 768.841 556.906C769.762 557.435 770.831 557.699 772.05 557.699C772.843 557.699 773.559 557.588 774.198 557.366C774.845 557.136 775.404 556.795 775.872 556.344C776.341 555.884 776.703 555.312 776.959 554.631L779.874 555.449C779.567 556.438 779.051 557.307 778.327 558.057C777.603 558.798 776.708 559.378 775.642 559.795C774.577 560.205 773.38 560.409 772.05 560.409ZM799.869 540.364L792.608 560H789.54L782.278 540.364H785.551L790.972 556.011H791.176L796.597 540.364H799.869ZM811.021 560.409C809.129 560.409 807.497 559.991 806.125 559.156C804.762 558.312 803.709 557.136 802.967 555.628C802.235 554.111 801.868 552.347 801.868 550.335C801.868 548.324 802.235 546.551 802.967 545.017C803.709 543.474 804.74 542.273 806.061 541.412C807.391 540.543 808.942 540.108 810.715 540.108C811.737 540.108 812.747 540.278 813.744 540.619C814.742 540.96 815.649 541.514 816.467 542.281C817.286 543.04 817.938 544.045 818.423 545.298C818.909 546.551 819.152 548.094 819.152 549.926V551.205H804.016V548.597H816.084C816.084 547.489 815.862 546.5 815.419 545.631C814.985 544.761 814.362 544.075 813.553 543.572C812.752 543.07 811.806 542.818 810.715 542.818C809.513 542.818 808.473 543.116 807.595 543.713C806.726 544.301 806.057 545.068 805.588 546.014C805.119 546.96 804.885 547.974 804.885 549.057V550.795C804.885 552.278 805.141 553.536 805.652 554.567C806.172 555.589 806.892 556.369 807.813 556.906C808.733 557.435 809.803 557.699 811.021 557.699C811.814 557.699 812.53 557.588 813.169 557.366C813.817 557.136 814.375 556.795 814.844 556.344C815.313 555.884 815.675 555.312 815.931 554.631L818.845 555.449C818.538 556.438 818.023 557.307 817.298 558.057C816.574 558.798 815.679 559.378 814.614 559.795C813.548 560.205 812.351 560.409 811.021 560.409ZM826.399 533.818V560H823.382V533.818H826.399ZM839.542 560.409C837.769 560.409 836.214 559.987 834.876 559.143C833.546 558.3 832.506 557.119 831.756 555.602C831.015 554.085 830.644 552.312 830.644 550.284C830.644 548.239 831.015 546.453 831.756 544.928C832.506 543.402 833.546 542.217 834.876 541.374C836.214 540.53 837.769 540.108 839.542 540.108C841.315 540.108 842.866 540.53 844.195 541.374C845.533 542.217 846.573 543.402 847.315 544.928C848.065 546.453 848.44 548.239 848.44 550.284C848.44 552.312 848.065 554.085 847.315 555.602C846.573 557.119 845.533 558.3 844.195 559.143C842.866 559.987 841.315 560.409 839.542 560.409ZM839.542 557.699C840.888 557.699 841.996 557.354 842.866 556.663C843.735 555.973 844.379 555.065 844.796 553.94C845.214 552.815 845.423 551.597 845.423 550.284C845.423 548.972 845.214 547.749 844.796 546.615C844.379 545.482 843.735 544.565 842.866 543.866C841.996 543.168 840.888 542.818 839.542 542.818C838.195 542.818 837.087 543.168 836.218 543.866C835.349 544.565 834.705 545.482 834.288 546.615C833.87 547.749 833.661 548.972 833.661 550.284C833.661 551.597 833.87 552.815 834.288 553.94C834.705 555.065 835.349 555.973 836.218 556.663C837.087 557.354 838.195 557.699 839.542 557.699ZM852.685 567.364V540.364H855.6V543.483H855.958C856.179 543.142 856.486 542.707 856.878 542.179C857.279 541.642 857.85 541.165 858.591 540.747C859.341 540.321 860.355 540.108 861.634 540.108C863.287 540.108 864.745 540.521 866.006 541.348C867.267 542.175 868.252 543.347 868.959 544.864C869.667 546.381 870.02 548.17 870.02 550.233C870.02 552.312 869.667 554.115 868.959 555.641C868.252 557.158 867.272 558.334 866.019 559.169C864.766 559.996 863.321 560.409 861.685 560.409C860.424 560.409 859.414 560.2 858.655 559.783C857.897 559.357 857.313 558.875 856.904 558.338C856.495 557.793 856.179 557.341 855.958 556.983H855.702V567.364H852.685ZM855.651 550.182C855.651 551.665 855.868 552.973 856.303 554.107C856.738 555.232 857.373 556.114 858.208 556.753C859.043 557.384 860.066 557.699 861.276 557.699C862.537 557.699 863.59 557.366 864.434 556.702C865.286 556.028 865.925 555.125 866.351 553.991C866.786 552.849 867.003 551.58 867.003 550.182C867.003 548.801 866.79 547.557 866.364 546.449C865.946 545.332 865.311 544.45 864.459 543.803C863.615 543.146 862.554 542.818 861.276 542.818C860.049 542.818 859.017 543.129 858.182 543.751C857.347 544.365 856.716 545.226 856.29 546.334C855.864 547.433 855.651 548.716 855.651 550.182ZM882.496 560.409C880.603 560.409 878.971 559.991 877.599 559.156C876.236 558.312 875.183 557.136 874.442 555.628C873.709 554.111 873.342 552.347 873.342 550.335C873.342 548.324 873.709 546.551 874.442 545.017C875.183 543.474 876.214 542.273 877.535 541.412C878.865 540.543 880.416 540.108 882.189 540.108C883.211 540.108 884.221 540.278 885.219 540.619C886.216 540.96 887.123 541.514 887.942 542.281C888.76 543.04 889.412 544.045 889.897 545.298C890.383 546.551 890.626 548.094 890.626 549.926V551.205H875.49V548.597H887.558C887.558 547.489 887.336 546.5 886.893 545.631C886.459 544.761 885.836 544.075 885.027 543.572C884.226 543.07 883.28 542.818 882.189 542.818C880.987 542.818 879.947 543.116 879.069 543.713C878.2 544.301 877.531 545.068 877.062 546.014C876.594 546.96 876.359 547.974 876.359 549.057V550.795C876.359 552.278 876.615 553.536 877.126 554.567C877.646 555.589 878.366 556.369 879.287 556.906C880.207 557.435 881.277 557.699 882.496 557.699C883.288 557.699 884.004 557.588 884.643 557.366C885.291 557.136 885.849 556.795 886.318 556.344C886.787 555.884 887.149 555.312 887.405 554.631L890.319 555.449C890.013 556.438 889.497 557.307 888.772 558.057C888.048 558.798 887.153 559.378 886.088 559.795C885.022 560.205 883.825 560.409 882.496 560.409ZM894.856 560V540.364H897.77V543.33H897.975C898.333 542.358 898.981 541.57 899.918 540.964C900.856 540.359 901.912 540.057 903.089 540.057C903.31 540.057 903.587 540.061 903.92 540.07C904.252 540.078 904.503 540.091 904.674 540.108V543.176C904.572 543.151 904.337 543.112 903.971 543.061C903.613 543.001 903.234 542.972 902.833 542.972C901.878 542.972 901.026 543.172 900.276 543.572C899.535 543.964 898.947 544.51 898.512 545.209C898.086 545.899 897.873 546.687 897.873 547.574V560H894.856ZM925.07 560.358C923.348 560.358 921.865 560.043 920.621 559.412C919.377 558.781 918.418 557.916 917.745 556.817C917.071 555.717 916.735 554.46 916.735 553.045C916.735 551.955 916.965 550.987 917.425 550.143C917.894 549.291 918.537 548.503 919.355 547.778C920.182 547.045 921.132 546.312 922.206 545.58L925.99 542.767C926.732 542.281 927.324 541.761 927.767 541.207C928.219 540.653 928.445 539.929 928.445 539.034C928.445 538.369 928.151 537.726 927.563 537.104C926.983 536.482 926.221 536.17 925.275 536.17C924.61 536.17 924.022 536.341 923.51 536.682C923.007 537.014 922.611 537.44 922.321 537.96C922.04 538.472 921.9 539 921.9 539.545C921.9 540.159 922.066 540.781 922.398 541.412C922.739 542.034 923.169 542.673 923.689 543.33C924.218 543.977 924.763 544.642 925.326 545.324L937.343 560H933.712L923.792 548.034C922.871 546.926 922.036 545.92 921.286 545.017C920.536 544.114 919.939 543.223 919.496 542.345C919.053 541.467 918.831 540.517 918.831 539.494C918.831 538.318 919.091 537.287 919.611 536.401C920.14 535.506 920.877 534.811 921.823 534.317C922.777 533.814 923.894 533.562 925.172 533.562C926.485 533.562 927.614 533.818 928.56 534.33C929.506 534.832 930.235 535.501 930.746 536.337C931.257 537.163 931.513 538.062 931.513 539.034C931.513 540.287 931.202 541.374 930.58 542.294C929.958 543.214 929.11 544.071 928.036 544.864L922.82 548.75C921.644 549.619 920.847 550.463 920.429 551.281C920.012 552.099 919.803 552.687 919.803 553.045C919.803 553.864 920.016 554.626 920.442 555.334C920.868 556.041 921.469 556.612 922.245 557.047C923.02 557.482 923.928 557.699 924.968 557.699C925.956 557.699 926.919 557.49 927.857 557.072C928.794 556.646 929.642 556.033 930.401 555.232C931.168 554.43 931.773 553.467 932.216 552.342C932.668 551.217 932.894 549.952 932.894 548.545H935.809C935.809 550.284 935.608 551.703 935.208 552.803C934.807 553.902 934.355 554.763 933.853 555.385C933.35 556.007 932.945 556.472 932.638 556.778C932.536 556.906 932.442 557.034 932.357 557.162C932.272 557.29 932.178 557.418 932.076 557.545C931.232 558.491 930.167 559.199 928.88 559.668C927.593 560.128 926.323 560.358 925.07 560.358ZM950.497 533.818H954.281L963.178 555.551H963.485L972.383 533.818H976.167V560H973.201V540.108H972.945L964.764 560H961.9L953.718 540.108H953.463V560H950.497V533.818ZM981.755 560V540.364H984.772V560H981.755ZM983.289 537.091C982.701 537.091 982.194 536.891 981.768 536.49C981.35 536.089 981.141 535.608 981.141 535.045C981.141 534.483 981.35 534.001 981.768 533.601C982.194 533.2 982.701 533 983.289 533C983.877 533 984.38 533.2 984.798 533.601C985.224 534.001 985.437 534.483 985.437 535.045C985.437 535.608 985.224 536.089 984.798 536.49C984.38 536.891 983.877 537.091 983.289 537.091ZM997.915 560.409C996.074 560.409 994.489 559.974 993.159 559.105C991.83 558.236 990.807 557.038 990.091 555.513C989.375 553.987 989.017 552.244 989.017 550.284C989.017 548.29 989.384 546.53 990.117 545.004C990.858 543.47 991.89 542.273 993.211 541.412C994.54 540.543 996.091 540.108 997.864 540.108C999.245 540.108 1000.49 540.364 1001.6 540.875C1002.7 541.386 1003.61 542.102 1004.32 543.023C1005.03 543.943 1005.47 545.017 1005.64 546.244H1002.62C1002.39 545.349 1001.88 544.557 1001.09 543.866C1000.3 543.168 999.245 542.818 997.915 542.818C996.739 542.818 995.708 543.125 994.821 543.739C993.944 544.344 993.257 545.2 992.763 546.308C992.277 547.408 992.034 548.699 992.034 550.182C992.034 551.699 992.273 553.02 992.75 554.145C993.236 555.27 993.918 556.143 994.796 556.766C995.682 557.388 996.722 557.699 997.915 557.699C998.699 557.699 999.411 557.562 1000.05 557.29C1000.69 557.017 1001.23 556.625 1001.67 556.114C1002.12 555.602 1002.43 554.989 1002.62 554.273H1005.64C1005.47 555.432 1005.04 556.476 1004.37 557.405C1003.71 558.325 1002.82 559.058 1001.72 559.604C1000.63 560.141 999.364 560.409 997.915 560.409ZM1009.69 560V540.364H1012.6V543.33H1012.81C1013.16 542.358 1013.81 541.57 1014.75 540.964C1015.69 540.359 1016.74 540.057 1017.92 540.057C1018.14 540.057 1018.42 540.061 1018.75 540.07C1019.08 540.078 1019.33 540.091 1019.51 540.108V543.176C1019.4 543.151 1019.17 543.112 1018.8 543.061C1018.44 543.001 1018.07 542.972 1017.66 542.972C1016.71 542.972 1015.86 543.172 1015.11 543.572C1014.37 543.964 1013.78 544.51 1013.34 545.209C1012.92 545.899 1012.7 546.687 1012.7 547.574V560H1009.69ZM1030.1 560.409C1028.33 560.409 1026.77 559.987 1025.44 559.143C1024.11 558.3 1023.07 557.119 1022.32 555.602C1021.57 554.085 1021.2 552.312 1021.2 550.284C1021.2 548.239 1021.57 546.453 1022.32 544.928C1023.07 543.402 1024.11 542.217 1025.44 541.374C1026.77 540.53 1028.33 540.108 1030.1 540.108C1031.87 540.108 1033.43 540.53 1034.75 541.374C1036.09 542.217 1037.13 543.402 1037.87 544.928C1038.62 546.453 1039 548.239 1039 550.284C1039 552.312 1038.62 554.085 1037.87 555.602C1037.13 557.119 1036.09 558.3 1034.75 559.143C1033.43 559.987 1031.87 560.409 1030.1 560.409ZM1030.1 557.699C1031.45 557.699 1032.56 557.354 1033.43 556.663C1034.29 555.973 1034.94 555.065 1035.36 553.94C1035.77 552.815 1035.98 551.597 1035.98 550.284C1035.98 548.972 1035.77 547.749 1035.36 546.615C1034.94 545.482 1034.29 544.565 1033.43 543.866C1032.56 543.168 1031.45 542.818 1030.1 542.818C1028.75 542.818 1027.65 543.168 1026.78 543.866C1025.91 544.565 1025.26 545.482 1024.85 546.615C1024.43 547.749 1024.22 548.972 1024.22 550.284C1024.22 551.597 1024.43 552.815 1024.85 553.94C1025.26 555.065 1025.91 555.973 1026.78 556.663C1027.65 557.354 1028.75 557.699 1030.1 557.699ZM1057.15 544.761L1054.44 545.528C1054.27 545.077 1054.02 544.638 1053.69 544.212C1053.37 543.777 1052.92 543.419 1052.36 543.138C1051.8 542.857 1051.08 542.716 1050.2 542.716C1049 542.716 1048 542.993 1047.19 543.547C1046.4 544.092 1046.01 544.787 1046.01 545.631C1046.01 546.381 1046.28 546.973 1046.82 547.408C1047.37 547.842 1048.22 548.205 1049.38 548.494L1052.3 549.21C1054.05 549.636 1055.36 550.288 1056.22 551.166C1057.08 552.036 1057.51 553.156 1057.51 554.528C1057.51 555.653 1057.19 556.659 1056.54 557.545C1055.9 558.432 1055.01 559.131 1053.86 559.642C1052.7 560.153 1051.37 560.409 1049.84 560.409C1047.84 560.409 1046.18 559.974 1044.87 559.105C1043.56 558.236 1042.72 556.966 1042.38 555.295L1045.24 554.58C1045.51 555.636 1046.03 556.429 1046.79 556.957C1047.55 557.486 1048.55 557.75 1049.79 557.75C1051.2 557.75 1052.31 557.452 1053.14 556.855C1053.97 556.25 1054.39 555.526 1054.39 554.682C1054.39 554 1054.15 553.429 1053.68 552.969C1053.2 552.5 1052.47 552.151 1051.48 551.92L1048.2 551.153C1046.41 550.727 1045.09 550.067 1044.24 549.172C1043.41 548.268 1042.99 547.139 1042.99 545.784C1042.99 544.676 1043.3 543.696 1043.92 542.844C1044.55 541.991 1045.41 541.322 1046.49 540.837C1047.58 540.351 1048.82 540.108 1050.2 540.108C1052.14 540.108 1053.67 540.534 1054.78 541.386C1055.89 542.239 1056.68 543.364 1057.15 544.761ZM1069.93 560.409C1068.03 560.409 1066.4 559.991 1065.03 559.156C1063.67 558.312 1062.61 557.136 1061.87 555.628C1061.14 554.111 1060.77 552.347 1060.77 550.335C1060.77 548.324 1061.14 546.551 1061.87 545.017C1062.61 543.474 1063.64 542.273 1064.97 541.412C1066.3 540.543 1067.85 540.108 1069.62 540.108C1070.64 540.108 1071.65 540.278 1072.65 540.619C1073.65 540.96 1074.55 541.514 1075.37 542.281C1076.19 543.04 1076.84 544.045 1077.33 545.298C1077.81 546.551 1078.06 548.094 1078.06 549.926V551.205H1062.92V548.597H1074.99C1074.99 547.489 1074.77 546.5 1074.32 545.631C1073.89 544.761 1073.27 544.075 1072.46 543.572C1071.66 543.07 1070.71 542.818 1069.62 542.818C1068.42 542.818 1067.38 543.116 1066.5 543.713C1065.63 544.301 1064.96 545.068 1064.49 546.014C1064.02 546.96 1063.79 547.974 1063.79 549.057V550.795C1063.79 552.278 1064.05 553.536 1064.56 554.567C1065.08 555.589 1065.8 556.369 1066.72 556.906C1067.64 557.435 1068.71 557.699 1069.93 557.699C1070.72 557.699 1071.43 557.588 1072.07 557.366C1072.72 557.136 1073.28 556.795 1073.75 556.344C1074.22 555.884 1074.58 555.312 1074.84 554.631L1077.75 555.449C1077.44 556.438 1076.93 557.307 1076.2 558.057C1075.48 558.798 1074.58 559.378 1073.52 559.795C1072.45 560.205 1071.26 560.409 1069.93 560.409ZM1082.29 560V540.364H1085.2V543.33H1085.41C1085.76 542.358 1086.41 541.57 1087.35 540.964C1088.29 540.359 1089.34 540.057 1090.52 540.057C1090.74 540.057 1091.02 540.061 1091.35 540.07C1091.68 540.078 1091.93 540.091 1092.1 540.108V543.176C1092 543.151 1091.77 543.112 1091.4 543.061C1091.04 543.001 1090.66 542.972 1090.26 542.972C1089.31 542.972 1088.46 543.172 1087.71 543.572C1086.97 543.964 1086.38 544.51 1085.94 545.209C1085.52 545.899 1085.3 546.687 1085.3 547.574V560H1082.29ZM1111.98 540.364L1104.71 560H1101.65L1094.38 540.364H1097.66L1103.08 556.011H1103.28L1108.7 540.364H1111.98ZM1115.6 560V540.364H1118.61V560H1115.6ZM1117.13 537.091C1116.54 537.091 1116.04 536.891 1115.61 536.49C1115.19 536.089 1114.98 535.608 1114.98 535.045C1114.98 534.483 1115.19 534.001 1115.61 533.601C1116.04 533.2 1116.54 533 1117.13 533C1117.72 533 1118.22 533.2 1118.64 533.601C1119.07 534.001 1119.28 534.483 1119.28 535.045C1119.28 535.608 1119.07 536.089 1118.64 536.49C1118.22 536.891 1117.72 537.091 1117.13 537.091ZM1131.76 560.409C1129.92 560.409 1128.33 559.974 1127 559.105C1125.67 558.236 1124.65 557.038 1123.93 555.513C1123.22 553.987 1122.86 552.244 1122.86 550.284C1122.86 548.29 1123.23 546.53 1123.96 545.004C1124.7 543.47 1125.73 542.273 1127.05 541.412C1128.38 540.543 1129.93 540.108 1131.71 540.108C1133.09 540.108 1134.33 540.364 1135.44 540.875C1136.55 541.386 1137.46 542.102 1138.16 543.023C1138.87 543.943 1139.31 545.017 1139.48 546.244H1136.46C1136.23 545.349 1135.72 544.557 1134.93 543.866C1134.14 543.168 1133.09 542.818 1131.76 542.818C1130.58 542.818 1129.55 543.125 1128.66 543.739C1127.79 544.344 1127.1 545.2 1126.61 546.308C1126.12 547.408 1125.88 548.699 1125.88 550.182C1125.88 551.699 1126.12 553.02 1126.59 554.145C1127.08 555.27 1127.76 556.143 1128.64 556.766C1129.52 557.388 1130.56 557.699 1131.76 557.699C1132.54 557.699 1133.25 557.562 1133.89 557.29C1134.53 557.017 1135.07 556.625 1135.52 556.114C1135.96 555.602 1136.27 554.989 1136.46 554.273H1139.48C1139.31 555.432 1138.89 556.476 1138.21 557.405C1137.55 558.325 1136.67 559.058 1135.57 559.604C1134.48 560.141 1133.21 560.409 1131.76 560.409ZM1151.76 560.409C1149.87 560.409 1148.24 559.991 1146.87 559.156C1145.5 558.312 1144.45 557.136 1143.71 555.628C1142.98 554.111 1142.61 552.347 1142.61 550.335C1142.61 548.324 1142.98 546.551 1143.71 545.017C1144.45 543.474 1145.48 542.273 1146.8 541.412C1148.13 540.543 1149.68 540.108 1151.46 540.108C1152.48 540.108 1153.49 540.278 1154.49 540.619C1155.48 540.96 1156.39 541.514 1157.21 542.281C1158.03 543.04 1158.68 544.045 1159.16 545.298C1159.65 546.551 1159.89 548.094 1159.89 549.926V551.205H1144.76V548.597H1156.83C1156.83 547.489 1156.6 546.5 1156.16 545.631C1155.73 544.761 1155.1 544.075 1154.29 543.572C1153.49 543.07 1152.55 542.818 1151.46 542.818C1150.25 542.818 1149.21 543.116 1148.34 543.713C1147.47 544.301 1146.8 545.068 1146.33 546.014C1145.86 546.96 1145.63 547.974 1145.63 549.057V550.795C1145.63 552.278 1145.88 553.536 1146.39 554.567C1146.91 555.589 1147.63 556.369 1148.55 556.906C1149.47 557.435 1150.54 557.699 1151.76 557.699C1152.56 557.699 1153.27 557.588 1153.91 557.366C1154.56 557.136 1155.12 556.795 1155.59 556.344C1156.05 555.884 1156.42 555.312 1156.67 554.631L1159.59 555.449C1159.28 556.438 1158.76 557.307 1158.04 558.057C1157.32 558.798 1156.42 559.378 1155.36 559.795C1154.29 560.205 1153.09 560.409 1151.76 560.409ZM1178.03 544.761L1175.32 545.528C1175.15 545.077 1174.9 544.638 1174.57 544.212C1174.24 543.777 1173.8 543.419 1173.24 543.138C1172.68 542.857 1171.96 542.716 1171.08 542.716C1169.88 542.716 1168.87 542.993 1168.07 543.547C1167.28 544.092 1166.88 544.787 1166.88 545.631C1166.88 546.381 1167.16 546.973 1167.7 547.408C1168.25 547.842 1169.1 548.205 1170.26 548.494L1173.17 549.21C1174.93 549.636 1176.24 550.288 1177.1 551.166C1177.96 552.036 1178.39 553.156 1178.39 554.528C1178.39 555.653 1178.07 556.659 1177.42 557.545C1176.78 558.432 1175.88 559.131 1174.73 559.642C1173.58 560.153 1172.25 560.409 1170.72 560.409C1168.72 560.409 1167.06 559.974 1165.75 559.105C1164.43 558.236 1163.6 556.966 1163.25 555.295L1166.12 554.58C1166.39 555.636 1166.91 556.429 1167.66 556.957C1168.43 557.486 1169.43 557.75 1170.67 557.75C1172.07 557.75 1173.19 557.452 1174.02 556.855C1174.85 556.25 1175.27 555.526 1175.27 554.682C1175.27 554 1175.03 553.429 1174.55 552.969C1174.08 552.5 1173.34 552.151 1172.36 551.92L1169.08 551.153C1167.28 550.727 1165.96 550.067 1165.12 549.172C1164.28 548.268 1163.87 547.139 1163.87 545.784C1163.87 544.676 1164.18 543.696 1164.8 542.844C1165.43 541.991 1166.29 541.322 1167.37 540.837C1168.46 540.351 1169.7 540.108 1171.08 540.108C1173.02 540.108 1174.55 540.534 1175.65 541.386C1176.77 542.239 1177.56 543.364 1178.03 544.761ZM1193.82 560H1190.5L1200.11 533.818H1203.38L1213 560H1209.67L1201.85 537.96H1201.64L1193.82 560ZM1195.05 549.773H1208.44V552.585H1195.05V549.773ZM1216.3 560V540.364H1219.22V543.33H1219.42C1219.78 542.358 1220.43 541.57 1221.37 540.964C1222.3 540.359 1223.36 540.057 1224.54 540.057C1224.76 540.057 1225.04 540.061 1225.37 540.07C1225.7 540.078 1225.95 540.091 1226.12 540.108V543.176C1226.02 543.151 1225.79 543.112 1225.42 543.061C1225.06 543.001 1224.68 542.972 1224.28 542.972C1223.33 542.972 1222.48 543.172 1221.73 543.572C1220.98 543.964 1220.4 544.51 1219.96 545.209C1219.53 545.899 1219.32 546.687 1219.32 547.574V560H1216.3ZM1236.72 560.409C1234.88 560.409 1233.29 559.974 1231.96 559.105C1230.63 558.236 1229.61 557.038 1228.89 555.513C1228.18 553.987 1227.82 552.244 1227.82 550.284C1227.82 548.29 1228.19 546.53 1228.92 545.004C1229.66 543.47 1230.69 542.273 1232.01 541.412C1233.34 540.543 1234.89 540.108 1236.67 540.108C1238.05 540.108 1239.29 540.364 1240.4 540.875C1241.51 541.386 1242.42 542.102 1243.12 543.023C1243.83 543.943 1244.27 545.017 1244.44 546.244H1241.42C1241.19 545.349 1240.68 544.557 1239.89 543.866C1239.11 543.168 1238.05 542.818 1236.72 542.818C1235.54 542.818 1234.51 543.125 1233.63 543.739C1232.75 544.344 1232.06 545.2 1231.57 546.308C1231.08 547.408 1230.84 548.699 1230.84 550.182C1230.84 551.699 1231.08 553.02 1231.55 554.145C1232.04 555.27 1232.72 556.143 1233.6 556.766C1234.49 557.388 1235.53 557.699 1236.72 557.699C1237.5 557.699 1238.21 557.562 1238.85 557.29C1239.49 557.017 1240.03 556.625 1240.48 556.114C1240.92 555.602 1241.24 554.989 1241.42 554.273H1244.44C1244.27 555.432 1243.85 556.476 1243.17 557.405C1242.51 558.325 1241.63 559.058 1240.53 559.604C1239.44 560.141 1238.17 560.409 1236.72 560.409ZM1251.51 548.188V560H1248.49V533.818H1251.51V543.432H1251.76C1252.22 542.418 1252.91 541.612 1253.83 541.016C1254.76 540.411 1256 540.108 1257.54 540.108C1258.88 540.108 1260.05 540.376 1261.06 540.913C1262.06 541.442 1262.84 542.256 1263.4 543.355C1263.96 544.446 1264.24 545.835 1264.24 547.523V560H1261.22V547.727C1261.22 546.168 1260.82 544.962 1260.01 544.109C1259.21 543.249 1258.1 542.818 1256.67 542.818C1255.68 542.818 1254.8 543.027 1254.01 543.445C1253.24 543.862 1252.62 544.472 1252.17 545.273C1251.73 546.074 1251.51 547.045 1251.51 548.188ZM1269.4 560V540.364H1272.42V560H1269.4ZM1270.93 537.091C1270.35 537.091 1269.84 536.891 1269.41 536.49C1269 536.089 1268.79 535.608 1268.79 535.045C1268.79 534.483 1269 534.001 1269.41 533.601C1269.84 533.2 1270.35 533 1270.93 533C1271.52 533 1272.03 533.2 1272.44 533.601C1272.87 534.001 1273.08 534.483 1273.08 535.045C1273.08 535.608 1272.87 536.089 1272.44 536.49C1272.03 536.891 1271.52 537.091 1270.93 537.091ZM1286.12 540.364V542.92H1275.95V540.364H1286.12ZM1278.91 535.659H1281.93V554.375C1281.93 555.227 1282.05 555.866 1282.3 556.293C1282.56 556.71 1282.88 556.991 1283.27 557.136C1283.67 557.273 1284.09 557.341 1284.54 557.341C1284.87 557.341 1285.14 557.324 1285.36 557.29C1285.57 557.247 1285.74 557.213 1285.87 557.188L1286.48 559.898C1286.28 559.974 1285.99 560.051 1285.62 560.128C1285.26 560.213 1284.79 560.256 1284.23 560.256C1283.38 560.256 1282.54 560.072 1281.73 559.706C1280.92 559.339 1280.24 558.781 1279.71 558.031C1279.18 557.281 1278.91 556.335 1278.91 555.193V535.659ZM1298.32 560.409C1296.43 560.409 1294.8 559.991 1293.43 559.156C1292.06 558.312 1291.01 557.136 1290.27 555.628C1289.54 554.111 1289.17 552.347 1289.17 550.335C1289.17 548.324 1289.54 546.551 1290.27 545.017C1291.01 543.474 1292.04 542.273 1293.36 541.412C1294.69 540.543 1296.24 540.108 1298.02 540.108C1299.04 540.108 1300.05 540.278 1301.05 540.619C1302.04 540.96 1302.95 541.514 1303.77 542.281C1304.59 543.04 1305.24 544.045 1305.73 545.298C1306.21 546.551 1306.45 548.094 1306.45 549.926V551.205H1291.32V548.597H1303.39C1303.39 547.489 1303.16 546.5 1302.72 545.631C1302.29 544.761 1301.66 544.075 1300.85 543.572C1300.05 543.07 1299.11 542.818 1298.02 542.818C1296.82 542.818 1295.78 543.116 1294.9 543.713C1294.03 544.301 1293.36 545.068 1292.89 546.014C1292.42 546.96 1292.19 547.974 1292.19 549.057V550.795C1292.19 552.278 1292.44 553.536 1292.95 554.567C1293.47 555.589 1294.19 556.369 1295.11 556.906C1296.04 557.435 1297.1 557.699 1298.32 557.699C1299.12 557.699 1299.83 557.588 1300.47 557.366C1301.12 557.136 1301.68 556.795 1302.15 556.344C1302.61 555.884 1302.98 555.312 1303.23 554.631L1306.15 555.449C1305.84 556.438 1305.33 557.307 1304.6 558.057C1303.88 558.798 1302.98 559.378 1301.92 559.795C1300.85 560.205 1299.65 560.409 1298.32 560.409ZM1318.66 560.409C1316.82 560.409 1315.23 559.974 1313.91 559.105C1312.58 558.236 1311.55 557.038 1310.84 555.513C1310.12 553.987 1309.76 552.244 1309.76 550.284C1309.76 548.29 1310.13 546.53 1310.86 545.004C1311.6 543.47 1312.64 542.273 1313.96 541.412C1315.29 540.543 1316.84 540.108 1318.61 540.108C1319.99 540.108 1321.23 540.364 1322.34 540.875C1323.45 541.386 1324.36 542.102 1325.07 543.023C1325.77 543.943 1326.21 545.017 1326.38 546.244H1323.37C1323.14 545.349 1322.62 544.557 1321.83 543.866C1321.05 543.168 1319.99 542.818 1318.66 542.818C1317.48 542.818 1316.45 543.125 1315.57 543.739C1314.69 544.344 1314 545.2 1313.51 546.308C1313.02 547.408 1312.78 548.699 1312.78 550.182C1312.78 551.699 1313.02 553.02 1313.5 554.145C1313.98 555.27 1314.66 556.143 1315.54 556.766C1316.43 557.388 1317.47 557.699 1318.66 557.699C1319.45 557.699 1320.16 557.562 1320.8 557.29C1321.44 557.017 1321.98 556.625 1322.42 556.114C1322.86 555.602 1323.18 554.989 1323.37 554.273H1326.38C1326.21 555.432 1325.79 556.476 1325.12 557.405C1324.45 558.325 1323.57 559.058 1322.47 559.604C1321.38 560.141 1320.11 560.409 1318.66 560.409ZM1338.97 540.364V542.92H1328.8V540.364H1338.97ZM1331.76 535.659H1334.78V554.375C1334.78 555.227 1334.9 555.866 1335.15 556.293C1335.41 556.71 1335.73 556.991 1336.12 557.136C1336.52 557.273 1336.94 557.341 1337.39 557.341C1337.72 557.341 1337.99 557.324 1338.21 557.29C1338.42 557.247 1338.59 557.213 1338.72 557.188L1339.33 559.898C1339.13 559.974 1338.84 560.051 1338.47 560.128C1338.11 560.213 1337.64 560.256 1337.08 560.256C1336.23 560.256 1335.39 560.072 1334.58 559.706C1333.77 559.339 1333.09 558.781 1332.56 558.031C1332.03 557.281 1331.76 556.335 1331.76 555.193V535.659Z" fill="white"/>
<g clip-path="url(#clip0_1_42)">
<path d="M621.045 639.599C620.198 641.63 619.102 643.549 617.781 645.31C614.954 642.386 611.569 640.06 607.827 638.467C604.085 636.875 600.062 636.049 595.995 636.039C591.928 636.029 587.9 636.834 584.15 638.407C580.4 639.981 577.003 642.29 574.162 645.2C571.32 648.109 569.09 651.558 567.604 655.344C566.119 659.13 565.408 663.175 565.513 667.241C565.618 671.306 566.538 675.309 568.217 679.013C569.896 682.717 572.301 686.047 575.29 688.805L576.42 689.809C580.707 693.425 585.911 695.783 591.456 696.624C597.001 697.464 602.671 696.753 607.837 694.57C613.002 692.386 617.463 688.816 620.725 684.253C623.987 679.691 625.922 674.315 626.317 668.721C627.195 661.064 624.873 651.273 621.045 639.599ZM579.684 689.056C579.361 689.453 578.928 689.745 578.439 689.895C577.951 690.046 577.429 690.048 576.939 689.902C576.449 689.756 576.013 689.467 575.687 689.074C575.361 688.68 575.159 688.199 575.106 687.69C575.053 687.181 575.153 686.669 575.391 686.217C575.63 685.764 575.997 685.393 576.447 685.15C576.897 684.906 577.408 684.802 577.917 684.849C578.426 684.896 578.91 685.094 579.307 685.416C579.828 685.856 580.158 686.482 580.228 687.16C580.298 687.839 580.103 688.518 579.684 689.056ZM620.856 679.955C613.388 689.935 597.32 686.545 587.09 687.048C587.09 687.048 585.27 687.173 583.449 687.424C583.449 687.424 584.14 687.11 585.019 686.796C592.237 684.286 595.626 683.784 600.019 681.524C608.241 677.319 616.463 668.093 618.095 658.553C614.957 667.716 605.417 675.625 596.755 678.826C590.793 681.022 580.06 683.156 580.06 683.156L579.621 682.905C572.34 679.328 572.09 663.511 585.395 658.427C591.232 656.168 596.755 657.423 603.095 655.917C609.81 654.348 617.593 649.327 620.731 642.737C624.246 653.344 628.514 669.788 620.856 679.955Z" fill="white"/>
</g>
<g clip-path="url(#clip1_1_42)">
<path d="M730.5 658.29H724.227V677.518H720.605V658.29H714.348V655.139H730.5V658.29ZM713.085 677.518H700.831V655.139H712.599V658.29H704.453V664.629H711.959V667.766H704.453V674.384H713.085V677.518ZM696.035 677.518H692.075L681.649 661.068C681.388 660.659 681.169 660.225 680.993 659.772H680.902C680.983 660.253 681.024 661.277 681.024 662.848V677.518H677.524V655.139H681.741L691.818 671.202C692.243 671.865 692.517 672.326 692.639 672.575H692.7C692.599 671.982 692.548 670.976 692.548 669.563V655.136H696.035V677.518ZM673.915 675.757C673.915 676.034 673.858 676.308 673.747 676.564C673.636 676.819 673.473 677.052 673.268 677.248C673.063 677.443 672.819 677.598 672.551 677.704C672.283 677.81 671.996 677.864 671.706 677.864C671.416 677.864 671.129 677.809 670.861 677.703C670.593 677.597 670.35 677.442 670.145 677.246C669.94 677.05 669.778 676.817 669.667 676.561C669.556 676.305 669.5 676.031 669.5 675.754C669.501 675.196 669.733 674.661 670.147 674.266C670.561 673.871 671.122 673.65 671.706 673.65C671.996 673.649 672.283 673.704 672.551 673.809C672.819 673.915 673.063 674.07 673.268 674.266C673.473 674.462 673.636 674.694 673.747 674.95C673.858 675.206 673.915 675.48 673.915 675.757Z" fill="white"/>
</g>
<g clip-path="url(#clip2_1_42)">
<path d="M833.59 649.801C833.614 649.884 833.626 649.969 833.626 650.055V663.142C833.626 663.486 833.44 663.803 833.145 663.971L822.158 670.3V682.84C822.157 683.008 822.113 683.173 822.029 683.318C821.945 683.464 821.825 683.585 821.68 683.669L798.739 696.87C798.686 696.9 798.629 696.923 798.571 696.939C798.551 696.944 798.53 696.959 798.51 696.964C798.351 697.01 798.181 697.01 798.022 696.964C797.994 696.959 797.971 696.944 797.946 696.934C797.895 696.914 797.839 696.898 797.788 696.87L774.855 683.669C774.709 683.585 774.588 683.465 774.503 683.319C774.419 683.174 774.374 683.009 774.374 682.84V643.559C774.374 643.475 774.387 643.391 774.41 643.31C774.418 643.279 774.435 643.259 774.445 643.229C774.461 643.178 774.48 643.128 774.504 643.081C774.514 643.048 774.542 643.025 774.562 642.997L774.646 642.883C774.677 642.857 774.71 642.837 774.74 642.814C774.776 642.784 774.809 642.753 774.845 642.728L786.318 636.127C786.463 636.043 786.627 635.999 786.794 635.999C786.961 635.999 787.126 636.043 787.271 636.127L798.739 642.728H798.744C798.782 642.753 798.812 642.781 798.845 642.812L798.942 642.88C798.975 642.916 798.993 642.957 799.026 642.995C799.046 643.023 799.077 643.048 799.089 643.079C799.115 643.129 799.133 643.175 799.15 643.226C799.158 643.254 799.176 643.279 799.184 643.307C799.209 643.386 799.219 643.47 799.219 643.556V668.089L808.776 662.588V650.048C808.776 649.964 808.786 649.88 808.809 649.799C808.816 649.773 808.834 649.748 808.842 649.717C808.859 649.666 808.879 649.616 808.903 649.567C808.921 649.537 808.949 649.517 808.966 649.484C808.997 649.445 809.02 649.407 809.05 649.374C809.081 649.344 809.114 649.323 809.144 649.303C809.18 649.278 809.21 649.245 809.249 649.222H809.251L820.722 642.619C820.867 642.535 821.031 642.491 821.198 642.491C821.365 642.491 821.53 642.535 821.675 642.619L833.145 649.222C833.186 649.247 833.214 649.275 833.252 649.301C833.283 649.326 833.316 649.346 833.344 649.372C833.377 649.407 833.399 649.448 833.43 649.484C833.45 649.514 833.478 649.537 833.491 649.567C833.519 649.618 833.537 649.669 833.552 649.72C833.567 649.745 833.582 649.773 833.59 649.801ZM831.709 662.591V651.705L827.698 654.013L822.153 657.205V668.091L831.709 662.591ZM820.246 682.289V671.393L814.789 674.506L799.219 683.397V694.39L820.246 682.289ZM776.278 645.211V682.289L797.305 694.39V683.397L786.32 677.183L786.315 677.175H786.31C786.274 677.15 786.246 677.122 786.208 677.096C786.18 677.071 786.147 677.05 786.119 677.028L786.117 677.023C786.084 676.992 786.063 676.959 786.038 676.921C786.013 676.893 785.985 676.865 785.967 676.829H785.962C785.941 676.794 785.929 676.751 785.911 676.71C785.896 676.669 785.875 676.641 785.865 676.601C785.856 676.553 785.849 676.504 785.845 676.456C785.84 676.42 785.83 676.387 785.83 676.352V650.714L780.289 647.519L776.278 645.211ZM786.793 638.059L777.236 643.559L786.793 649.059L796.344 643.559L786.793 638.059ZM791.764 672.384L797.31 669.192V645.211L793.294 647.524L787.749 650.714V674.694L791.764 672.384ZM821.199 644.553L811.643 650.05L821.199 655.548L830.754 650.048L821.199 644.553ZM820.244 657.205L814.7 654.013L810.685 651.708V662.593L816.23 665.786L820.246 668.094L820.244 657.205ZM798.258 681.742L812.273 673.741L819.278 669.746L809.729 664.248L798.741 670.574L788.725 676.344L798.258 681.742Z" fill="white"/>
</g>
<path d="M908.005 636C906.563 636 905.181 636.573 904.162 637.592C903.142 638.611 902.57 639.994 902.57 641.435C902.57 642.877 903.142 644.259 904.162 645.279C905.181 646.298 906.563 646.871 908.005 646.871C909.447 646.871 910.829 646.298 911.848 645.279C912.868 644.259 913.44 642.877 913.44 641.435C913.44 639.994 912.868 638.611 911.848 637.592C910.829 636.573 909.447 636 908.005 636ZM929.711 648.533C928.269 648.533 926.887 649.106 925.867 650.125C924.848 651.144 924.276 652.527 924.276 653.968C924.276 655.41 924.848 656.792 925.867 657.812C926.887 658.831 928.269 659.404 929.711 659.404C931.152 659.404 932.535 658.831 933.554 657.812C934.574 656.792 935.146 655.41 935.146 653.968C935.146 652.527 934.574 651.144 933.554 650.125C932.535 649.106 931.152 648.533 929.711 648.533ZM929.711 673.599C928.269 673.599 926.887 674.172 925.867 675.191C924.848 676.21 924.276 677.593 924.276 679.034C924.276 680.476 924.848 681.858 925.867 682.878C926.887 683.897 928.269 684.47 929.711 684.47C931.152 684.47 932.535 683.897 933.554 682.878C934.574 681.858 935.146 680.476 935.146 679.034C935.146 677.593 934.574 676.21 933.554 675.191C932.535 674.172 931.152 673.599 929.711 673.599ZM908.005 686.132C906.564 686.132 905.182 686.704 904.163 687.723C903.143 688.743 902.571 690.125 902.571 691.566C902.571 693.007 903.143 694.389 904.163 695.408C905.182 696.427 906.564 697 908.005 697C909.446 697 910.828 696.427 911.848 695.408C912.867 694.389 913.439 693.007 913.439 691.566C913.439 690.125 912.867 688.743 911.848 687.723C910.828 686.704 909.446 686.132 908.005 686.132ZM886.294 673.601C885.581 673.601 884.874 673.742 884.215 674.015C883.555 674.288 882.956 674.688 882.452 675.193C881.947 675.698 881.547 676.297 881.274 676.956C881.001 677.615 880.86 678.322 880.86 679.035C880.86 679.749 881.001 680.456 881.274 681.115C881.547 681.774 881.947 682.373 882.452 682.878C882.956 683.383 883.555 683.783 884.215 684.056C884.874 684.329 885.581 684.47 886.294 684.47C887.736 684.47 889.118 683.897 890.137 682.878C891.157 681.858 891.729 680.476 891.729 679.034C891.729 677.593 891.157 676.21 890.137 675.191C889.118 674.172 887.736 673.601 886.294 673.601ZM886.294 648.533C884.853 648.533 883.47 649.106 882.451 650.125C881.431 651.144 880.859 652.527 880.859 653.968C880.859 655.41 881.431 656.792 882.451 657.812C883.47 658.831 884.853 659.404 886.294 659.404C887.736 659.404 889.118 658.831 890.137 657.812C891.157 656.792 891.729 655.41 891.729 653.968C891.729 652.527 891.157 651.144 890.137 650.125C889.118 649.106 887.736 648.533 886.294 648.533ZM908.005 639.947L885.005 653.225V679.78L908.005 693.058L930.999 679.78V653.225L908.005 639.947ZM908.005 644.016L927.474 677.744H888.531L908.005 644.016ZM904.48 644.959L887.59 674.219V654.714L904.48 644.959ZM911.53 644.959L928.422 654.714V674.219L911.53 644.959ZM891.111 680.327H924.897L908.005 690.076L891.111 680.327Z" fill="white"/>
<g clip-path="url(#clip3_1_42)">
<path d="M1028.94 691.861C1024.09 695.106 1018.27 697 1012 697C995.167 697 981.5 683.333 981.5 666.5C981.5 649.667 995.167 636 1012 636C1028.83 636 1042.5 649.667 1042.5 666.5C1042.5 675.607 1038.5 683.786 1032.16 689.378L1004.93 654.3H999.8V678.69H1003.9V659.513L1028.94 691.861ZM1020.47 670.173L1024.54 675.411V654.3H1020.47V670.173Z" fill="white"/>
</g>
<g clip-path="url(#clip4_1_42)">
<path d="M1127.78 677.948C1129.99 677.757 1131.7 675.813 1131.59 673.49C1131.47 671.166 1129.57 669.301 1127.25 669.301H1127.09C1125.94 669.342 1124.85 669.839 1124.07 670.682C1123.28 671.525 1122.86 672.645 1122.9 673.797C1122.98 675.015 1123.48 676.006 1124.16 676.728C1121.5 681.908 1117.5 685.715 1111.44 688.915C1107.36 691.045 1103.06 691.848 1098.87 691.279C1095.37 690.783 1092.63 689.22 1090.95 686.706C1088.44 682.896 1088.21 678.786 1090.3 674.674C1091.83 671.7 1094.11 669.532 1095.64 668.465C1095.18 667.188 1094.82 665.877 1094.57 664.543C1083.29 672.62 1084.44 683.661 1087.87 688.879C1090.42 692.687 1095.64 695.122 1101.35 695.122C1102.87 695.122 1104.48 695.01 1106.03 694.629C1115.94 692.725 1123.44 686.785 1127.74 678.026L1127.78 677.948ZM1141.37 668.427C1135.47 661.493 1126.79 657.685 1116.88 657.685H1115.59C1114.95 656.277 1113.46 655.401 1111.78 655.401H1111.67C1109.27 655.401 1107.4 657.459 1107.48 659.856C1107.56 662.138 1109.5 664.045 1111.82 664.045H1112.01C1112.83 664.013 1113.63 663.745 1114.31 663.272C1114.98 662.799 1115.51 662.142 1115.82 661.379H1117.23C1123.1 661.379 1128.65 663.092 1133.72 666.442C1137.6 668.996 1140.38 672.346 1141.95 676.346C1143.32 679.62 1143.24 682.82 1141.83 685.489C1139.66 689.675 1136 691.886 1131.17 691.886C1128.12 691.886 1125.15 690.933 1123.63 690.249C1122.71 691.007 1121.19 692.265 1120.08 693.027C1123.43 694.547 1126.82 695.424 1130.1 695.424C1137.53 695.424 1143.05 691.238 1145.14 687.199C1147.43 682.629 1147.24 674.938 1141.41 668.35L1141.37 668.427ZM1102 679.315C1102.07 681.6 1104.01 683.504 1106.34 683.504H1106.49C1107.06 683.491 1107.63 683.363 1108.15 683.129C1108.67 682.895 1109.14 682.559 1109.53 682.14C1109.92 681.721 1110.22 681.228 1110.42 680.691C1110.62 680.153 1110.7 679.582 1110.68 679.01C1110.68 676.723 1108.7 674.824 1106.37 674.824H1106.22C1106.07 674.824 1105.84 674.824 1105.65 674.898C1102.49 669.565 1101.15 663.849 1101.65 657.685C1101.96 653.039 1103.48 649.001 1106.22 645.651C1108.51 642.794 1112.81 641.381 1115.74 641.31C1123.97 641.154 1127.4 651.402 1127.66 655.477L1131.47 656.621C1130.59 644.126 1122.83 637.576 1115.4 637.576C1108.43 637.576 1102 642.641 1099.4 650.068C1095.86 659.968 1098.19 669.492 1102.53 677.109C1102.15 677.605 1101.92 678.479 1102 679.315Z" fill="white"/>
</g>
<path d="M1233.2 660.286C1229.99 646.103 1222.39 641.442 1221.58 639.66C1220.86 638.659 1220.23 637.235 1219.71 636C1219.62 637.258 1219.57 637.741 1218.38 639.009C1216.54 640.448 1207.1 648.368 1206.33 664.477C1205.61 679.503 1217.18 688.457 1218.75 689.599L1218.93 689.726C1219.26 692.145 1219.54 694.57 1219.77 697H1220.99C1221.28 694.377 1221.72 691.774 1222.29 689.197C1223.35 688.445 1223.83 688.02 1224.45 687.436C1227.41 684.697 1229.76 681.366 1231.36 677.661C1232.95 673.955 1233.75 669.956 1233.7 665.923C1233.72 663.854 1233.44 661.699 1233.2 660.286ZM1219.64 681.115C1219.64 681.115 1219.64 660.042 1220.34 660.044C1220.88 660.044 1221.58 687.227 1221.58 687.227C1220.61 687.113 1219.64 682.754 1219.64 681.115Z" fill="white"/>
<g clip-path="url(#clip5_1_42)">
<path d="M1353.38 673.42C1353.35 673.314 1353.3 673.212 1353.24 673.118C1352.88 672.449 1352.03 672.249 1350.68 672.528C1346.47 673.395 1344.85 672.861 1344.26 672.479C1347.67 667.273 1350.47 660.986 1351.99 655.12C1352.68 652.45 1354.02 646.164 1352.3 643.094C1352.19 642.884 1352.06 642.684 1351.91 642.497C1348.64 638.309 1343.83 636.063 1338 636.001C1334.21 635.961 1330.96 636.881 1330.08 637.22C1329.65 637.139 1329.21 637.069 1328.77 637.012C1327.67 636.813 1326.56 636.704 1325.44 636.688C1322.44 636.641 1319.84 637.359 1317.69 638.824C1315.51 638.008 1305.52 634.643 1299.33 639.024C1295.88 641.471 1294.28 645.845 1294.59 652.023C1294.7 654.103 1295.88 660.497 1297.75 666.622C1298.92 670.451 1300.14 673.489 1301.39 675.726C1302.8 678.253 1304.26 679.776 1305.75 680.274C1306.89 680.653 1308.63 680.641 1310.47 678.424C1312.51 675.975 1314.52 673.784 1315.42 672.815C1316.52 673.414 1317.72 673.736 1318.95 673.774C1318.95 673.777 1318.95 673.781 1318.95 673.784C1318.74 674.039 1318.53 674.298 1318.32 674.56C1317.46 675.654 1317.28 675.881 1314.51 676.452C1313.72 676.615 1311.63 677.047 1311.6 678.515C1311.59 678.826 1311.68 679.102 1311.83 679.345C1312.41 680.421 1314.17 680.895 1314.41 680.954C1317.8 681.802 1320.77 681.188 1322.98 679.229C1322.93 684.9 1323.17 690.457 1323.86 692.16C1324.42 693.565 1325.79 697.001 1330.13 697C1330.77 697 1331.47 696.926 1332.24 696.761C1336.77 695.79 1338.74 693.788 1339.5 689.375C1339.88 687.162 1340.52 682.067 1340.87 678.951C1340.91 678.772 1340.96 678.644 1341.01 678.605C1341.01 678.604 1341.19 678.485 1342.1 678.683C1342.13 678.691 1342.17 678.697 1342.21 678.7L1342.85 678.757L1342.89 678.759C1345.04 678.857 1347.75 678.397 1349.33 677.665C1350.96 676.905 1353.92 675.041 1353.38 673.42ZM1299.53 666.186C1297.64 659.995 1296.53 653.77 1296.45 652.024C1296.17 646.505 1297.51 642.663 1300.42 640.605C1305.08 637.305 1312.72 639.231 1315.94 640.275C1315.93 640.283 1315.92 640.29 1315.92 640.299C1310.77 645.494 1310.89 654.369 1310.91 654.912C1310.91 655.121 1310.92 655.418 1310.95 655.825C1311.04 657.318 1311.2 660.096 1310.76 663.243C1310.35 666.167 1311.25 669.029 1313.23 671.095C1313.44 671.308 1313.65 671.509 1313.87 671.698C1312.99 672.642 1311.08 674.729 1309.04 677.182C1307.59 678.917 1306.6 678.584 1306.27 678.475C1305.27 678.143 1304.2 676.983 1303.12 675.114C1301.91 672.982 1300.68 669.95 1299.53 666.186ZM1314.79 679.116C1314.36 679.007 1313.96 678.828 1313.7 678.665C1313.92 678.565 1314.3 678.436 1314.92 678.307C1318.19 677.636 1318.69 677.162 1319.79 675.765C1320.04 675.445 1320.33 675.082 1320.72 674.64C1320.81 674.545 1320.87 674.432 1320.91 674.31C1321.34 673.926 1321.6 674.031 1322.02 674.204C1322.42 674.368 1322.8 674.865 1322.96 675.412C1323.03 675.67 1323.12 676.161 1322.85 676.542C1320.55 679.759 1317.2 679.717 1314.79 679.116ZM1320.12 668.98L1319.98 669.338C1319.65 670.244 1319.33 671.087 1319.14 671.887C1317.44 671.882 1315.79 671.157 1314.53 669.848C1312.94 668.183 1312.21 665.867 1312.55 663.493C1313.01 660.168 1312.84 657.274 1312.75 655.719C1312.73 655.501 1312.72 655.31 1312.72 655.16C1313.47 654.494 1316.95 652.628 1319.43 653.197C1320.57 653.456 1321.26 654.228 1321.54 655.555C1323.03 662.427 1321.74 665.292 1320.7 667.593C1320.49 668.068 1320.29 668.516 1320.12 668.98ZM1338.83 680.601C1338.79 681.051 1338.74 681.557 1338.68 682.116L1338.3 683.23C1338.28 683.318 1338.26 683.411 1338.26 683.504C1338.24 684.71 1338.12 685.153 1337.97 685.713C1337.81 686.296 1337.62 686.956 1337.51 688.401C1337.23 691.996 1335.28 694.061 1331.37 694.899C1327.51 695.725 1326.83 693.636 1326.23 691.794C1326.17 691.601 1326.1 691.408 1326.03 691.218C1325.49 689.729 1325.55 687.629 1325.63 684.723C1325.68 683.297 1325.57 679.891 1324.79 677.998C1324.81 677.253 1324.82 676.496 1324.84 675.731C1324.85 675.634 1324.83 675.538 1324.8 675.445C1324.78 675.266 1324.74 675.09 1324.69 674.916C1324.38 673.828 1323.62 672.917 1322.71 672.54C1322.35 672.39 1321.68 672.115 1320.89 672.319C1321.06 671.617 1321.35 670.825 1321.67 669.968L1321.81 669.607C1321.96 669.2 1322.15 668.779 1322.35 668.333C1323.43 665.925 1324.92 662.626 1323.3 655.174C1322.7 652.383 1320.69 651.02 1317.63 651.337C1315.8 651.527 1314.12 652.266 1313.29 652.689C1313.12 652.774 1312.95 652.863 1312.79 652.954C1313.02 650.142 1313.9 644.886 1317.2 641.561C1317.45 641.315 1317.7 641.081 1317.97 640.86C1318.11 640.834 1318.23 640.778 1318.34 640.696C1320.25 639.246 1322.65 638.534 1325.46 638.58C1326.5 638.597 1327.5 638.666 1328.45 638.786C1333.37 639.687 1336.69 642.463 1338.7 644.842C1340.77 647.288 1341.89 649.751 1342.34 651.08C1338.98 650.738 1336.69 651.403 1335.53 653.06C1333.01 656.667 1336.91 663.666 1338.79 667.03C1339.13 667.647 1339.43 668.18 1339.52 668.406C1340.13 669.887 1340.92 670.875 1341.5 671.596C1341.68 671.817 1341.85 672.032 1341.98 672.219C1340.96 672.513 1339.13 673.191 1339.3 676.583C1339.27 676.98 1339.19 677.719 1339.09 678.654C1338.97 679.182 1338.91 679.824 1338.83 680.601ZM1341.1 676.481C1340.99 674.367 1341.78 674.147 1342.61 673.913C1342.73 673.881 1342.84 673.847 1342.96 673.81C1343.06 673.905 1343.18 673.992 1343.3 674.071C1344.75 675.028 1347.32 675.142 1350.94 674.413C1350.43 674.863 1349.62 675.428 1348.52 675.941C1347.47 676.424 1345.73 676.787 1344.08 676.865C1342.25 676.95 1341.32 676.66 1341.1 676.481ZM1342.54 652.917C1342.53 653.808 1342.41 654.618 1342.28 655.463C1342.14 656.372 1341.99 657.312 1341.95 658.452C1341.92 659.563 1342.06 660.717 1342.19 661.833C1342.46 664.087 1342.74 666.409 1341.66 668.699C1341.49 668.382 1341.33 668.055 1341.19 667.719C1341.05 667.395 1340.76 666.874 1340.36 666.153C1338.8 663.347 1335.13 656.775 1337.01 654.094C1337.97 652.714 1340.42 652.655 1342.54 652.917ZM1343.12 670.743C1343.05 670.652 1342.98 670.561 1342.91 670.47L1342.82 670.357C1344.66 667.309 1344.3 664.293 1343.98 661.618C1343.85 660.52 1343.72 659.484 1343.76 658.511C1343.79 657.478 1343.93 656.593 1344.06 655.737C1344.22 654.683 1344.38 653.591 1344.34 652.305C1344.37 652.17 1344.39 652.01 1344.37 651.821C1344.25 650.587 1342.84 646.896 1339.97 643.553C1338.43 641.756 1336.19 639.748 1333.14 638.37C1334.47 638.099 1336.27 637.852 1338.28 637.897C1343.5 638.013 1347.62 639.965 1350.55 643.698C1350.61 643.779 1350.66 643.864 1350.72 643.953C1352.55 647.398 1350.01 659.902 1343.12 670.743ZM1320.72 655.198C1320.65 655.654 1319.93 656.272 1319.14 656.272C1319.07 656.272 1319 656.267 1318.93 656.258C1318.46 656.192 1317.97 655.892 1317.65 655.455C1317.53 655.302 1317.34 655.003 1317.38 654.733C1317.39 654.631 1317.44 654.482 1317.61 654.354C1317.91 654.127 1318.51 654.043 1319.16 654.134C1319.97 654.246 1320.79 654.627 1320.72 655.198ZM1340.87 654.152C1340.9 654.354 1340.75 654.663 1340.48 654.941C1340.31 655.123 1339.94 655.439 1339.45 655.508C1339.38 655.517 1339.32 655.521 1339.26 655.521C1338.51 655.521 1337.88 654.926 1337.83 654.577C1337.77 654.128 1338.5 653.787 1339.26 653.682C1340.01 653.577 1340.81 653.704 1340.87 654.152Z" fill="white"/>
</g>
</g>
<defs>
<filter id="filter0_dd_1_42" x="-20" y="-15" width="1960" height="1120" filterUnits="userSpaceOnUse" color-interpolation-filters="sRGB">
<feFlood flood-opacity="0" result="BackgroundImageFix"/>
<feColorMatrix in="SourceAlpha" type="matrix" values="0 0 0 0 0 0 0 0 0 0 0 0 0 0 0 0 0 0 127 0" result="hardAlpha"/>
<feOffset dy="5"/>
<feGaussianBlur stdDeviation="10"/>
<feColorMatrix type="matrix" values="0 0 0 0 0 0 0 0 0 0 0 0 0 0 0 0 0 0 0.1 0"/>
<feBlend mode="normal" in2="BackgroundImageFix" result="effect1_dropShadow_1_42"/>
<feColorMatrix in="SourceAlpha" type="matrix" values="0 0 0 0 0 0 0 0 0 0 0 0 0 0 0 0 0 0 127 0" result="hardAlpha"/>
<feOffset/>
<feGaussianBlur stdDeviation="1.5"/>
<feColorMatrix type="matrix" values="0 0 0 0 0 0 0 0 0 0 0 0 0 0 0 0 0 0 0.3 0"/>
<feBlend mode="normal" in2="effect1_dropShadow_1_42" result="effect2_dropShadow_1_42"/>
<feBlend mode="normal" in="SourceGraphic" in2="effect2_dropShadow_1_42" result="shape"/>
</filter>
<linearGradient id="paint0_linear_1_42" x1="960" y1="0" x2="960" y2="1080" gradientUnits="userSpaceOnUse">
<stop stop-color="#0D1117"/>
<stop offset="1" stop-color="#2F88ED"/>
</linearGradient>
<linearGradient id="paint1_linear_1_42" x1="435" y1="440.5" x2="1485" y2="440.5" gradientUnits="userSpaceOnUse">
<stop stop-color="white"/>
<stop offset="1" stop-color="#2F88ED"/>
</linearGradient>
<clipPath id="clip0_1_42">
<rect width="61" height="61" fill="white" transform="translate(565.5 636)"/>
</clipPath>
<clipPath id="clip1_1_42">
<rect width="61" height="61" fill="white" transform="translate(669.5 636)"/>
</clipPath>
<clipPath id="clip2_1_42">
<rect width="61" height="61" fill="white" transform="translate(773.5 636)"/>
</clipPath>
<clipPath id="clip3_1_42">
<rect width="61" height="61" fill="white" transform="translate(981.5 636)"/>
</clipPath>
<clipPath id="clip4_1_42">
<rect width="61" height="61" fill="white" transform="translate(1085.5 636)"/>
</clipPath>
<clipPath id="clip5_1_42">
<rect width="61" height="61" fill="white" transform="translate(1293.5 636)"/>
</clipPath>
</defs>
</svg>
